<?xml version="1.0" encoding="utf-8"?>
<!-- Generator: Adobe Illustrator 25.4.1, SVG Export Plug-In . SVG Version: 6.00 Build 0)  -->
<svg version="1.1" id="Layer_1" xmlns="http://www.w3.org/2000/svg" xmlns:xlink="http://www.w3.org/1999/xlink" x="0px" y="0px"
	 viewBox="0 0 792 612" style="enable-background:new 0 0 792 612;" xml:space="preserve">
<style type="text/css">
	.st0{fill:#3DAE2B;}
	.st1{fill:#1A2854;}
	.st2{fill:#FFFFFF;}
</style>
<g>
	<path class="st0" d="M247,295.4c-0.2-0.3-0.4-0.5-0.7-0.5c-0.2,0-0.4,0-0.6,0.2c-1,0.8-2.1,1.4-3.3,1.8c-1.2,0.4-2.5,0.6-3.7,0.6
		c-2.1,0-3.8-0.6-4.9-1.7c-1.1-1.1-1.7-2.6-1.7-4.5v-9.6c0-1.9,0.5-3.4,1.7-4.5c1.1-1.1,2.7-1.7,4.8-1.7c1.1,0,2.2,0.2,3.3,0.5
		c1.1,0.3,2.1,0.9,3.1,1.6c0.5,0.3,1,0.2,1.3-0.2l1.3-1.9c0.3-0.5,0.2-1-0.2-1.3c-1.3-1-2.7-1.7-4.2-2.2c-2.9-0.9-6.1-1-8.8-0.1
		c-1.3,0.4-2.5,1.1-3.5,2c-1,0.9-1.8,2-2.4,3.3c-0.6,1.3-0.9,2.8-0.9,4.5v9.7c0,1.7,0.3,3.2,0.9,4.5c0.6,1.3,1.4,2.4,2.4,3.3
		c1,0.9,2.2,1.5,3.5,2c1.3,0.4,2.8,0.6,4.3,0.6c1.6,0,3.3-0.2,4.9-0.7c1.6-0.5,3.1-1.3,4.5-2.4c0.4-0.3,0.5-0.8,0.2-1.4L247,295.4z"
		/>
	<path class="st0" d="M260.6,297.6C260.6,297.6,260.6,297.6,260.6,297.6c-0.3,0.1-0.6,0.1-0.9,0.1c-0.3,0-0.6,0-0.8,0
		c-0.9,0-1.5-0.3-1.9-0.8c-0.5-0.6-0.7-1.6-0.7-3v-21.3c0-0.6-0.4-0.9-0.9-0.9H253c-0.6,0-1,0.4-1,0.9v21.2c0,2.5,0.6,4.5,1.7,5.8
		c1.1,1.4,2.8,2,4.8,2c0.4,0,0.8,0,1.2,0c0.4,0,0.8,0,1.2-0.1l0,0c0.5-0.1,0.8-0.5,0.8-1v-2C261.7,298,261.3,297.6,260.6,297.6z"/>
	<path class="st0" d="M279.8,281.5c-0.8-0.8-1.8-1.3-2.9-1.7c-1.1-0.4-2.4-0.6-3.8-0.6s-2.7,0.2-3.8,0.6c-1.1,0.4-2.1,1-2.9,1.7
		c-0.8,0.8-1.4,1.7-1.9,2.7c-0.4,1-0.7,2.2-0.7,3.4v5.8c0,1.2,0.2,2.4,0.7,3.4c0.4,1,1.1,1.9,1.9,2.7c0.8,0.7,1.8,1.3,2.9,1.7
		c1.1,0.4,2.4,0.6,3.8,0.6s2.7-0.2,3.8-0.6c1.1-0.4,2.1-1,2.9-1.7c0.8-0.7,1.4-1.6,1.9-2.7c0.4-1,0.7-2.2,0.7-3.4v-5.8
		c0-1.2-0.2-2.4-0.7-3.4C281.3,283.2,280.6,282.3,279.8,281.5z M278.1,287.6v5.8c0,1.4-0.4,2.4-1.2,3.2c-0.8,0.8-2.1,1.2-3.8,1.2
		c-1.6,0-2.9-0.4-3.7-1.2c-0.8-0.8-1.2-1.8-1.2-3.2v-5.8c0-1.4,0.4-2.5,1.2-3.3c0.8-0.8,2.1-1.2,3.7-1.2c1.7,0,2.9,0.4,3.8,1.2
		C277.7,285.1,278.1,286.2,278.1,287.6z"/>
	<path class="st0" d="M303.6,279.6h-2.4c-0.6,0-1,0.4-1,1v16.6c-0.5,0.2-1.1,0.3-1.7,0.4c-0.8,0.1-1.6,0.2-2.4,0.2
		c-1.6,0-2.9-0.4-3.8-1.2c-0.9-0.8-1.3-2.2-1.3-4.1v-11.9c0-0.6-0.4-1-0.9-1h-2.4c-0.6,0-1,0.4-1,1v12c0,1.6,0.2,3,0.7,4.1
		c0.5,1.2,1.1,2.1,2,2.9c0.8,0.8,1.8,1.3,3,1.6c1.1,0.3,2.4,0.5,3.7,0.5c1.4,0,2.8-0.1,4.1-0.4c1.3-0.3,2.6-0.7,3.7-1.2
		c0.4-0.2,0.6-0.5,0.6-1v-18.5C304.5,280,304.1,279.6,303.6,279.6z"/>
	<path class="st0" d="M326.1,271.7h-2.4c-0.6,0-1,0.4-1,0.9v7.5c-0.5-0.2-1.1-0.4-1.7-0.6c-2.1-0.6-4.6-0.4-6.5,0.3
		c-1.1,0.4-2.1,1-2.9,1.8c-0.8,0.8-1.5,1.7-1.9,2.8c-0.4,1.1-0.7,2.4-0.7,3.8v4.4c0,1.6,0.2,3,0.7,4.1c0.5,1.1,1.1,2.1,2,2.9
		c0.8,0.8,1.8,1.3,3,1.7c1.1,0.3,2.4,0.5,3.7,0.5c1.3,0,2.7-0.1,4-0.4c1.4-0.2,2.7-0.6,3.9-1.1c0.4-0.2,0.7-0.5,0.7-1v-26.7
		C327,272,326.6,271.7,326.1,271.7z M322.7,284.3v12.9c-0.5,0.2-1.1,0.3-1.8,0.4c-0.8,0.1-1.6,0.2-2.5,0.2c-1.7,0-3-0.4-3.9-1.2
		c-0.9-0.8-1.3-2.1-1.3-4.1v-4.4c0-1.8,0.4-3.1,1.3-3.9c0.9-0.8,2.2-1.2,3.8-1.2c0.9,0,1.7,0.1,2.4,0.4
		C321.6,283.6,322.2,283.9,322.7,284.3z"/>
	<path class="st0" d="M361.7,274.2c-1-1-2.2-1.7-3.6-2.2c-1.4-0.5-3-0.7-4.7-0.7c-1.7,0-3.3,0.3-4.7,0.7c-1.4,0.5-2.6,1.2-3.6,2.2
		c-1,1-1.7,2.1-2.3,3.5c-0.5,1.4-0.8,2.9-0.8,4.6v8.4c0,1.7,0.3,3.2,0.8,4.5c0.5,1.4,1.3,2.5,2.3,3.5c1,1,2.2,1.7,3.6,2.2
		c1.4,0.5,3,0.8,4.7,0.8c1.7,0,3.3-0.3,4.7-0.8c1.4-0.5,2.6-1.3,3.6-2.2c1-1,1.7-2.1,2.3-3.5c0.5-1.3,0.8-2.9,0.8-4.5v-8.4
		c0-1.7-0.3-3.2-0.8-4.6C363.4,276.3,362.6,275.2,361.7,274.2z M360.3,282.3v8.4c0,2.1-0.6,3.8-1.8,5c-1.2,1.2-2.9,1.8-5.2,1.8
		c-2.3,0-4-0.6-5.2-1.8c-1.2-1.2-1.8-2.8-1.8-5v-8.4c0-2.2,0.6-3.9,1.8-5.1c1.2-1.2,2.9-1.8,5.2-1.8c2.2,0,4,0.6,5.2,1.8
		C359.7,278.4,360.3,280.1,360.3,282.3z"/>
	<path class="st0" d="M385.1,281.3c-0.8-0.8-1.8-1.3-3-1.7c-2.2-0.7-5-0.7-7.8-0.1c-1.4,0.3-2.7,0.6-3.9,1.1c-0.4,0.2-0.6,0.5-0.6,1
		v26.3c0,0.6,0.4,0.9,0.9,0.9h2.4c0.6,0,1-0.4,1-0.9v-7.2c0.5,0.2,1.1,0.4,1.7,0.6c0.9,0.2,1.8,0.4,2.8,0.4c1.3,0,2.6-0.2,3.7-0.6
		c1.1-0.4,2.1-1,3-1.7c0.8-0.8,1.5-1.7,1.9-2.8c0.4-1.1,0.7-2.4,0.7-3.8v-4.4c0-1.6-0.2-3-0.7-4.1
		C386.7,283.1,386,282.1,385.1,281.3z M383.5,288.3v4.4c0,1.8-0.4,3.1-1.3,3.9c-0.9,0.8-2.2,1.2-3.8,1.2c-0.9,0-1.7-0.1-2.4-0.4
		c-0.7-0.2-1.3-0.5-1.8-0.8v-12.9c0.5-0.2,1.1-0.3,1.8-0.4c0.8-0.1,1.6-0.2,2.5-0.2c1.7,0,2.9,0.4,3.9,1.2
		C383,285,383.5,286.4,383.5,288.3z"/>
	<path class="st0" d="M401.8,297.6C401.8,297.6,401.8,297.6,401.8,297.6c-0.4,0-0.7,0-1.1,0.1c-0.3,0-0.6,0-0.8,0
		c-1.1,0-1.9-0.3-2.5-0.9l0,0c-0.6-0.6-0.9-1.6-0.9-2.8v-10.3h4.7c0.6,0,0.9-0.4,0.9-1v-2c0-0.6-0.4-0.9-0.9-0.9h-4.7l-0.3-4.4
		c-0.1-0.5-0.4-0.9-0.9-0.9h-2.1c-0.6,0-1,0.4-1,1v18.6c0,1.3,0.2,2.4,0.6,3.4c0.4,1,0.9,1.8,1.6,2.4c0.7,0.6,1.5,1.1,2.4,1.4
		c0.9,0.3,1.9,0.4,2.9,0.4c0.3,0,0.6,0,1,0s0.8,0,1.2-0.1c0.5-0.1,0.9-0.4,0.9-1v-2.1C402.8,298,402.4,297.6,401.8,297.6z"/>
	<path class="st0" d="M409.4,279.6H407c-0.6,0-1,0.4-1,1v19.8c0,0.6,0.4,0.9,1,0.9h2.4c0.6,0,0.9-0.4,0.9-0.9v-19.8
		C410.3,280,409.9,279.6,409.4,279.6z"/>
	<path class="st0" d="M406.4,272.5c-0.5,0.5-0.7,1.1-0.7,1.8c0,0.7,0.2,1.3,0.7,1.8c0.5,0.5,1.1,0.7,1.8,0.7c0.7,0,1.3-0.2,1.8-0.7
		c0.5-0.5,0.7-1.1,0.7-1.8c0-0.7-0.2-1.3-0.7-1.8C409,271.6,407.4,271.6,406.4,272.5z"/>
	<path class="st0" d="M441.5,281.4c-0.8-0.7-1.7-1.3-2.8-1.7c-2.1-0.7-4.9-0.7-6.9,0c-0.9,0.3-1.8,0.8-2.7,1.3
		c-0.7-0.5-1.5-1-2.3-1.3c-2-0.7-4.7-0.7-7.1-0.1c-1.2,0.3-2.3,0.7-3.4,1.2c-0.4,0.2-0.7,0.6-0.7,1v18.6c0,0.6,0.4,0.9,0.9,0.9h2.4
		c0.6,0,1-0.4,1-0.9v-16.6c0.4-0.2,0.9-0.3,1.4-0.4c0.6-0.1,1.3-0.2,2.1-0.2c2.9,0,4.3,1.5,4.3,4.6v12.6c0,0.6,0.4,0.9,0.9,0.9h2.4
		c0.6,0,0.9-0.4,0.9-0.9v-12.6c0-1.3-0.2-2.5-0.6-3.6c0.5-0.3,1-0.5,1.6-0.7c0.7-0.2,1.4-0.3,2.2-0.3c1.6,0,2.7,0.4,3.5,1.2
		c0.7,0.8,1.1,2,1.1,3.4v12.6c0,0.6,0.4,0.9,1,0.9h2.4c0.6,0,0.9-0.4,0.9-0.9v-12.5c0-1.4-0.2-2.6-0.6-3.7
		C442.9,283,442.3,282.1,441.5,281.4z"/>
	<path class="st0" d="M452.4,279.6h-2.4c-0.6,0-1,0.4-1,1v19.8c0,0.6,0.4,0.9,1,0.9h2.4c0.6,0,0.9-0.4,0.9-0.9v-19.8
		C453.4,280,453,279.6,452.4,279.6z"/>
	<path class="st0" d="M449.5,272.5c-0.5,0.5-0.7,1.1-0.7,1.8c0,0.7,0.2,1.3,0.7,1.8c0.5,0.5,1.1,0.7,1.8,0.7c0.7,0,1.3-0.2,1.8-0.7
		c0.5-0.5,0.7-1.1,0.7-1.8c0-0.7-0.2-1.3-0.7-1.8C452.1,271.6,450.5,271.6,449.5,272.5z"/>
	<path class="st0" d="M473.3,297.4h-10.2l10.6-14.8c0.2-0.3,0.3-0.6,0.3-0.9v-1.1c0-0.6-0.4-1-1-1h-14.4c-0.6,0-0.9,0.4-0.9,1v2
		c0,0.6,0.4,1,0.9,1h9.3l-10.5,14.7c-0.2,0.2-0.3,0.5-0.3,0.9v1.2c0,0.6,0.4,0.9,0.9,0.9h15.2c0.6,0,0.9-0.4,0.9-0.9v-2
		C474.3,297.7,473.9,297.4,473.3,297.4z"/>
	<path class="st0" d="M492.3,281.2c-0.8-0.7-1.8-1.2-2.8-1.6c-2.1-0.7-4.5-0.7-6.6,0c-1.1,0.3-2.1,0.9-2.9,1.6
		c-0.8,0.7-1.5,1.6-2,2.7c-0.5,1.1-0.7,2.3-0.7,3.8v6.1c0,1.3,0.3,2.5,0.8,3.5c0.5,1,1.2,1.9,2,2.5c0.8,0.7,1.8,1.2,2.9,1.5
		c1.1,0.3,2.2,0.5,3.3,0.5c1.7,0,3.3-0.3,4.7-0.8c1.3-0.6,2.5-1.3,3.6-2.2c0.4-0.4,0.5-0.9,0.1-1.3l-1.1-1.5
		c-0.3-0.5-0.8-0.6-1.4-0.2c-0.7,0.6-1.5,1.1-2.5,1.5c-0.9,0.4-2,0.6-3.3,0.6c-1.4,0-2.5-0.4-3.4-1.1c-0.9-0.7-1.3-1.7-1.3-3v-1.2
		h12.6c0.6,0,0.9-0.4,0.9-1v-3.9c0-1.4-0.3-2.7-0.7-3.8C493.8,282.8,493.1,281.9,492.3,281.2z M481.5,288.8v-1.2
		c0-1.6,0.4-2.7,1.3-3.4c0.9-0.7,2-1.1,3.4-1.1c1.4,0,2.5,0.4,3.4,1.1c0.9,0.7,1.3,1.8,1.3,3.4v1.2H481.5z"/>
	<path class="st0" d="M515.7,271.7h-2.4c-0.6,0-1,0.4-1,0.9v7.5c-0.5-0.2-1.1-0.4-1.7-0.6c-2.1-0.6-4.6-0.4-6.5,0.3
		c-1.1,0.4-2.1,1-2.9,1.8c-0.8,0.8-1.5,1.7-1.9,2.8c-0.4,1.1-0.7,2.4-0.7,3.8v4.4c0,1.6,0.2,3,0.7,4.1c0.5,1.1,1.1,2.1,2,2.9
		c0.8,0.8,1.8,1.3,3,1.7c1.1,0.3,2.4,0.5,3.7,0.5c1.3,0,2.7-0.1,4-0.4c1.4-0.2,2.7-0.6,3.9-1.1c0.4-0.2,0.7-0.5,0.7-1v-26.7
		C516.7,272,516.3,271.7,515.7,271.7z M512.4,284.3v12.9c-0.5,0.2-1.1,0.3-1.8,0.4c-0.8,0.1-1.6,0.2-2.5,0.2c-1.7,0-3-0.4-3.9-1.2
		c-0.9-0.8-1.3-2.1-1.3-4.1v-4.4c0-1.8,0.4-3.1,1.3-3.9c0.9-0.8,2.2-1.2,3.8-1.2c0.9,0,1.7,0.1,2.4,0.4
		C511.2,283.6,511.8,283.9,512.4,284.3z"/>
</g>
<g>
	<path class="st0" d="M281.4,311.3h-9.6c-0.6,0-0.9,0.4-0.9,0.9V340c0,0.6,0.4,0.9,0.9,0.9h2.5c0.6,0,0.9-0.4,0.9-0.9v-8.9h6.2
		c3.3,0,5.8-0.9,7.7-2.6c1.8-1.7,2.8-4.2,2.8-7.3c0-3.1-0.9-5.5-2.7-7.2C287.3,312.2,284.7,311.3,281.4,311.3z M275.2,315.5h5.8
		c4.3,0,6.3,1.9,6.3,5.7c0,3.9-2.1,5.7-6.3,5.7h-5.8V315.5z"/>
	<path class="st0" d="M311.1,321.2c-0.8-0.8-1.8-1.3-2.9-1.7c-1.1-0.4-2.4-0.6-3.8-0.6s-2.7,0.2-3.8,0.6c-1.1,0.4-2.1,1-2.9,1.7
		c-0.8,0.8-1.4,1.7-1.9,2.7c-0.4,1-0.7,2.2-0.7,3.4v5.8c0,1.2,0.2,2.4,0.7,3.4c0.4,1,1.1,1.9,1.9,2.7c0.8,0.7,1.8,1.3,2.9,1.7
		c1.1,0.4,2.4,0.6,3.8,0.6s2.7-0.2,3.8-0.6c1.1-0.4,2.1-1,2.9-1.7c0.8-0.7,1.4-1.6,1.9-2.7c0.4-1,0.7-2.2,0.7-3.4v-5.8
		c0-1.2-0.2-2.4-0.7-3.4C312.6,322.8,311.9,321.9,311.1,321.2z M309.4,327.3v5.8c0,1.4-0.4,2.4-1.2,3.2c-0.8,0.8-2.1,1.2-3.8,1.2
		c-1.6,0-2.9-0.4-3.7-1.2c-0.8-0.8-1.2-1.8-1.2-3.2v-5.8c0-1.4,0.4-2.5,1.2-3.3c0.8-0.8,2.1-1.2,3.7-1.2c1.7,0,2.9,0.4,3.8,1.2
		C309,324.8,309.4,325.9,309.4,327.3z"/>
	<path class="st0" d="M318.7,312.2c-0.5,0.5-0.7,1.1-0.7,1.8c0,0.7,0.2,1.3,0.7,1.8c0.5,0.5,1.1,0.7,1.8,0.7c0.7,0,1.3-0.2,1.8-0.7
		c0.5-0.5,0.7-1.1,0.7-1.8c0-0.7-0.2-1.3-0.7-1.8C321.2,311.3,319.6,311.3,318.7,312.2z"/>
	<path class="st0" d="M321.6,319.3h-2.4c-0.6,0-1,0.4-1,1V340c0,0.6,0.4,0.9,1,0.9h2.4c0.6,0,0.9-0.4,0.9-0.9v-19.8
		C322.5,319.6,322.1,319.3,321.6,319.3z"/>
	<path class="st0" d="M343.1,321c-0.8-0.8-1.9-1.3-3-1.6c-2.3-0.7-5.3-0.6-7.9-0.1c-1.3,0.3-2.6,0.7-3.8,1.2c-0.4,0.2-0.6,0.6-0.6,1
		V340c0,0.6,0.4,0.9,0.9,0.9h2.4c0.6,0,1-0.4,1-0.9v-16.6c0.5-0.2,1.1-0.3,1.8-0.4c0.8-0.1,1.6-0.2,2.5-0.2c1.7,0,3,0.4,3.9,1.2
		c0.9,0.8,1.3,2.1,1.3,4.1v12c0,0.6,0.4,0.9,0.9,0.9h2.4c0.6,0,1-0.4,1-0.9v-12c0-1.6-0.2-3-0.7-4.1
		C344.6,322.7,344,321.7,343.1,321z"/>
	<path class="st0" d="M360.3,337.3C360.3,337.3,360.3,337.3,360.3,337.3c-0.4,0-0.7,0-1.1,0.1c-0.3,0-0.6,0-0.8,0
		c-1.1,0-1.9-0.3-2.5-0.9l0,0c-0.6-0.6-0.9-1.6-0.9-2.8v-10.3h4.7c0.6,0,0.9-0.4,0.9-1v-2c0-0.6-0.4-0.9-0.9-0.9H355l-0.3-4.4
		c-0.1-0.5-0.4-0.9-0.9-0.9h-2.1c-0.6,0-1,0.4-1,1v18.6c0,1.3,0.2,2.4,0.6,3.4c0.4,1,0.9,1.8,1.6,2.4c0.7,0.6,1.5,1.1,2.4,1.4
		c0.9,0.3,1.9,0.4,2.9,0.4c0.3,0,0.6,0,1,0c0.4,0,0.8,0,1.2-0.1c0.5-0.1,0.9-0.4,0.9-1v-2.1C361.3,337.6,360.9,337.3,360.3,337.3z"
		/>
	<path class="st0" d="M393.5,335c-0.2-0.3-0.4-0.5-0.7-0.5c-0.2,0-0.4,0-0.6,0.2c-1,0.8-2.1,1.4-3.3,1.8c-1.2,0.4-2.5,0.6-3.7,0.6
		c-2.1,0-3.8-0.6-4.9-1.7c-1.1-1.1-1.7-2.6-1.7-4.5v-9.6c0-1.9,0.5-3.4,1.7-4.5c1.1-1.1,2.7-1.7,4.8-1.7c1.1,0,2.2,0.2,3.3,0.5
		c1.1,0.3,2.1,0.9,3.1,1.6c0.5,0.3,1,0.2,1.3-0.2l1.3-1.9c0.3-0.5,0.2-1-0.2-1.3c-1.3-1-2.7-1.7-4.2-2.2c-2.9-0.9-6.1-1-8.8-0.1
		c-1.3,0.4-2.5,1.1-3.5,2c-1,0.9-1.8,2-2.4,3.3c-0.6,1.3-0.9,2.8-0.9,4.5v9.7c0,1.7,0.3,3.2,0.9,4.5c0.6,1.3,1.4,2.4,2.4,3.3
		c1,0.9,2.2,1.5,3.5,2c1.3,0.4,2.8,0.6,4.3,0.6c1.6,0,3.3-0.2,4.9-0.7c1.6-0.5,3.1-1.3,4.5-2.4c0.4-0.3,0.5-0.8,0.2-1.4L393.5,335z"
		/>
	<path class="st0" d="M407.1,337.3C407.1,337.3,407.1,337.3,407.1,337.3c-0.3,0.1-0.6,0.1-0.9,0.1c-0.3,0-0.6,0-0.8,0
		c-0.9,0-1.5-0.3-1.9-0.8c-0.5-0.6-0.7-1.6-0.7-3v-21.3c0-0.6-0.4-0.9-0.9-0.9h-2.4c-0.6,0-1,0.4-1,0.9v21.2c0,2.5,0.6,4.5,1.7,5.8
		c1.1,1.4,2.8,2,4.8,2c0.4,0,0.8,0,1.2,0c0.4,0,0.8,0,1.2-0.1l0,0c0.5-0.1,0.8-0.5,0.8-1v-2C408.2,337.6,407.8,337.3,407.1,337.3z"
		/>
	<path class="st0" d="M426.3,321.2c-0.8-0.8-1.8-1.3-2.9-1.7c-1.1-0.4-2.4-0.6-3.8-0.6s-2.7,0.2-3.8,0.6c-1.1,0.4-2.1,1-2.9,1.7
		c-0.8,0.8-1.4,1.7-1.9,2.7c-0.4,1-0.7,2.2-0.7,3.4v5.8c0,1.2,0.2,2.4,0.7,3.4c0.4,1,1.1,1.9,1.9,2.7c0.8,0.7,1.8,1.3,2.9,1.7
		c1.1,0.4,2.4,0.6,3.8,0.6s2.7-0.2,3.8-0.6c1.1-0.4,2.1-1,2.9-1.7c0.8-0.7,1.4-1.6,1.9-2.7c0.4-1,0.7-2.2,0.7-3.4v-5.8
		c0-1.2-0.2-2.4-0.7-3.4C427.8,322.8,427.1,321.9,426.3,321.2z M424.6,327.3v5.8c0,1.4-0.4,2.4-1.2,3.2c-0.8,0.8-2.1,1.2-3.8,1.2
		c-1.6,0-2.9-0.4-3.7-1.2c-0.8-0.8-1.2-1.8-1.2-3.2v-5.8c0-1.4,0.4-2.5,1.2-3.3c0.8-0.8,2.1-1.2,3.7-1.2c1.7,0,2.9,0.4,3.8,1.2
		C424.2,324.8,424.6,325.9,424.6,327.3z"/>
	<path class="st0" d="M450.1,319.3h-2.4c-0.6,0-1,0.4-1,1v16.6c-0.5,0.2-1.1,0.3-1.7,0.4c-0.8,0.1-1.6,0.2-2.4,0.2
		c-1.6,0-2.9-0.4-3.8-1.2c-0.9-0.8-1.3-2.2-1.3-4.1v-11.9c0-0.6-0.4-1-0.9-1h-2.4c-0.6,0-1,0.4-1,1v12c0,1.6,0.2,3,0.7,4.1
		c0.5,1.2,1.1,2.1,2,2.9c0.8,0.8,1.8,1.3,3,1.6c1.1,0.3,2.4,0.5,3.7,0.5c1.4,0,2.8-0.1,4.1-0.4c1.3-0.3,2.6-0.7,3.7-1.2
		c0.4-0.2,0.6-0.5,0.6-1v-18.5C451,319.6,450.6,319.3,450.1,319.3z"/>
	<path class="st0" d="M472.6,311.3h-2.4c-0.6,0-1,0.4-1,0.9v7.5c-0.5-0.2-1.1-0.4-1.7-0.6c-2.1-0.6-4.6-0.4-6.5,0.3
		c-1.1,0.4-2.1,1-2.9,1.8c-0.8,0.8-1.5,1.7-1.9,2.8c-0.4,1.1-0.7,2.4-0.7,3.8v4.4c0,1.6,0.2,3,0.7,4.1c0.5,1.1,1.1,2.1,2,2.9
		c0.8,0.8,1.8,1.3,3,1.7c1.1,0.3,2.4,0.5,3.7,0.5c1.3,0,2.7-0.1,4-0.4c1.4-0.2,2.7-0.6,3.9-1.1c0.4-0.2,0.7-0.5,0.7-1v-26.7
		C473.5,311.7,473.1,311.3,472.6,311.3z M469.2,323.9v12.9c-0.5,0.2-1.1,0.3-1.8,0.4c-0.8,0.1-1.6,0.2-2.5,0.2c-1.7,0-3-0.4-3.9-1.2
		c-0.9-0.8-1.3-2.1-1.3-4.1v-4.4c0-1.8,0.4-3.1,1.3-3.9c0.9-0.8,2.2-1.2,3.8-1.2c0.9,0,1.7,0.1,2.4,0.4
		C468.1,323.3,468.7,323.6,469.2,323.9z"/>
</g>
<g>
	<circle class="st1" cx="372.1" cy="214" r="44.6"/>
	<g>
		<circle class="st0" cx="372.9" cy="201.1" r="7.5"/>
		<path class="st2" d="M372.9,209.5c-4.6,0-8.3-3.7-8.3-8.3c0-4.6,3.7-8.3,8.3-8.3c4.6,0,8.3,3.7,8.3,8.3
			C381.2,205.7,377.5,209.5,372.9,209.5z M372.9,194.5c-3.7,0-6.6,3-6.6,6.6s3,6.6,6.6,6.6c3.7,0,6.6-3,6.6-6.6
			S376.6,194.5,372.9,194.5z"/>
	</g>
	<g>
		<circle class="st0" cx="358.6" cy="214.2" r="4.9"/>
		<path class="st2" d="M358.6,220c-1.5,0-2.9-0.6-4.1-1.7l0,0c-1.1-1.1-1.7-2.5-1.7-4.1c0-1.5,0.6-3,1.7-4.1c2.2-2.2,5.9-2.2,8.1,0
			c1.1,1.1,1.7,2.5,1.7,4.1c0,1.5-0.6,3-1.7,4.1C361.6,219.4,360.1,220,358.6,220z M355.8,217.1c1.6,1.6,4.1,1.6,5.7,0
			c0.8-0.8,1.2-1.8,1.2-2.8c0-1.1-0.4-2.1-1.2-2.8c-1.6-1.6-4.1-1.6-5.7,0c-0.8,0.8-1.2,1.8-1.2,2.8
			C354.6,215.3,355,216.3,355.8,217.1L355.8,217.1z"/>
	</g>
	<g>
		<circle class="st0" cx="386.5" cy="214.9" r="4.9"/>
		<path class="st2" d="M386.5,220.7c-3.2,0-5.7-2.6-5.7-5.7c0-3.2,2.6-5.7,5.7-5.7c3.2,0,5.7,2.6,5.7,5.7
			C392.2,218.1,389.7,220.7,386.5,220.7z M386.5,210.9c-2.2,0-4,1.8-4,4s1.8,4,4,4c2.2,0,4-1.8,4-4S388.7,210.9,386.5,210.9z"/>
	</g>
	<g>
		<circle class="st0" cx="380.6" cy="226.6" r="2.6"/>
		<path class="st2" d="M380.6,229.9c-1.1,0-2.2-0.5-2.8-1.5v0c-1-1.6-0.6-3.7,1-4.7c0.8-0.5,1.7-0.7,2.5-0.5
			c0.9,0.2,1.6,0.7,2.1,1.5c0.5,0.8,0.7,1.7,0.5,2.5c-0.2,0.9-0.7,1.6-1.5,2.1C381.8,229.8,381.2,229.9,380.6,229.9z M379,227.6
			c0.6,0.9,1.7,1.1,2.6,0.6c0.4-0.3,0.7-0.7,0.8-1.2c0.1-0.5,0-1-0.3-1.4s-0.7-0.7-1.2-0.8c-0.5-0.1-1,0-1.4,0.3
			C378.7,225.6,378.4,226.7,379,227.6L379,227.6z"/>
	</g>
	<g>
		<circle class="st0" cx="396.9" cy="226.6" r="2.6"/>
		<path class="st2" d="M396.9,229.9c-0.2,0-0.5,0-0.7-0.1c-0.9-0.2-1.6-0.7-2.1-1.5l0,0c-0.5-0.8-0.7-1.7-0.5-2.5
			c0.2-0.9,0.7-1.6,1.5-2.1c1.6-1,3.7-0.6,4.7,1c0.5,0.8,0.7,1.7,0.5,2.5c-0.2,0.9-0.7,1.6-1.5,2.1
			C398.2,229.8,397.6,229.9,396.9,229.9z M396.9,224.7c-0.4,0-0.7,0.1-1,0.3c-0.4,0.3-0.7,0.7-0.8,1.2c-0.1,0.5,0,1,0.3,1.4l0,0
			c0.3,0.4,0.7,0.7,1.2,0.8c0.5,0.1,1,0,1.4-0.3c0.4-0.3,0.7-0.7,0.8-1.2c0.1-0.5,0-1-0.3-1.4C398.1,225,397.5,224.7,396.9,224.7z"
			/>
	</g>
	<g>
		<circle class="st0" cx="347.9" cy="226.6" r="2.6"/>
		<path class="st2" d="M347.9,229.9c-0.2,0-0.5,0-0.7-0.1c-0.9-0.2-1.6-0.7-2.1-1.5c-0.5-0.8-0.7-1.7-0.5-2.5
			c0.2-0.9,0.7-1.6,1.5-2.1c1.6-1,3.7-0.6,4.7,1c0.5,0.8,0.7,1.7,0.5,2.5c-0.2,0.9-0.7,1.6-1.5,2.1
			C349.1,229.8,348.5,229.9,347.9,229.9z M347.9,224.7c-0.4,0-0.7,0.1-1,0.3c-0.4,0.3-0.7,0.7-0.8,1.2c-0.1,0.5,0,1,0.3,1.4l0,0
			c0.3,0.4,0.7,0.7,1.2,0.8c0.5,0.1,1,0,1.4-0.3c0.4-0.3,0.7-0.7,0.8-1.2c0.1-0.5,0-1-0.3-1.4C349.1,225,348.5,224.7,347.9,224.7z"
			/>
	</g>
	<g>
		<circle class="st0" cx="364.2" cy="226.6" r="2.6"/>
		<path class="st2" d="M364.2,229.9c-0.4,0-0.9-0.1-1.3-0.3l0,0c-1.7-0.7-2.5-2.7-1.8-4.4c0.7-1.7,2.7-2.5,4.4-1.8
			c1.7,0.7,2.5,2.7,1.8,4.4C366.8,229.2,365.5,229.9,364.2,229.9z M363.5,228.3c1,0.4,2.1,0,2.5-1c0.4-1,0-2.1-1-2.5
			c-1-0.4-2.1,0-2.5,1C362.1,226.8,362.5,227.9,363.5,228.3L363.5,228.3z"/>
	</g>
	<path class="st2" d="M372.3,240.6c-6.7,0-13.5-0.1-20.2,0c-8.5,0.1-15.9-6.7-17.6-14.6c-1.4-6.5,0.5-11.9,5.4-16.2
		c0.3-0.3,0.4-0.9,0.4-1.3c-1.1-6.4,2.5-12,8.6-13.4c1.3-0.3,2.8-0.2,4.2-0.2c0.7,0,1.1-0.1,1.4-0.7c2.7-4.6,6.6-7.8,11.7-9.4
		c10.6-3.4,22.6,1.8,27.5,12.4c0.7,1.4,1.1,2.9,1.5,4.3c0.2,0.6,0.5,0.9,1.1,1.1c8.3,2.5,14.4,10.6,14.4,19.2
		c0,9.3-5.7,16.6-14.7,18.5c-1,0.2-2,0.3-3,0.3C386.1,240.6,379.2,240.6,372.3,240.6z M372.1,236.7c6.7,0,13.4,0,20.2,0
		c9.4,0,16.4-8.8,14.2-18.1c-1.6-6.7-5.7-11-12.5-12.7c-1.4-0.4-1.9-0.8-2.1-2.2c-0.2-0.8-0.3-1.6-0.5-2.3
		c-2.9-10.2-14.5-16.3-24.2-12.7c-4.5,1.7-7.7,4.6-9.8,8.8c-0.8,1.7-1.4,1.9-3.2,1.5c-6.5-1.6-11.5,3.7-9.6,10.1
		c0.5,1.7,0.3,2.1-1.1,3.1c-3.6,2.5-5.5,6.1-5.4,10.6c0.1,7.2,6.5,14.1,14,13.9C358.7,236.5,365.4,236.7,372.1,236.7z"/>
</g>
</svg>
