<?xml version="1.0" encoding="utf-8"?>
<!-- Generator: Adobe Illustrator 25.4.1, SVG Export Plug-In . SVG Version: 6.00 Build 0)  -->
<svg version="1.1" id="Layer_1" xmlns="http://www.w3.org/2000/svg" xmlns:xlink="http://www.w3.org/1999/xlink" x="0px" y="0px"
	 viewBox="0 0 792 612" style="enable-background:new 0 0 792 612;" xml:space="preserve">
<style type="text/css">
	.st0{fill:#3DAE2B;}
	.st1{fill:#1A2854;}
	.st2{fill:#FFFFFF;}
</style>
<g>
	<path class="st0" d="M214.4,301.7c-0.2-0.3-0.4-0.5-0.7-0.5c-0.2,0-0.4,0-0.6,0.2c-1,0.8-2.1,1.4-3.3,1.8c-1.2,0.4-2.5,0.6-3.7,0.6
		c-2.1,0-3.8-0.6-4.9-1.7c-1.1-1.1-1.7-2.6-1.7-4.5V288c0-1.9,0.5-3.4,1.7-4.5c1.1-1.1,2.7-1.7,4.8-1.7c1.1,0,2.2,0.2,3.3,0.5
		c1.1,0.3,2.1,0.9,3.1,1.6c0.5,0.3,1,0.2,1.3-0.2l1.3-1.9c0.3-0.5,0.2-1-0.2-1.3c-1.3-1-2.7-1.7-4.2-2.2c-2.9-0.9-6.1-1-8.8-0.1
		c-1.3,0.4-2.5,1.1-3.5,2c-1,0.9-1.8,2-2.4,3.3c-0.6,1.3-0.9,2.8-0.9,4.5v9.7c0,1.7,0.3,3.2,0.9,4.5c0.6,1.3,1.4,2.4,2.4,3.3
		c1,0.9,2.2,1.5,3.5,2c1.3,0.4,2.8,0.6,4.3,0.6c1.6,0,3.3-0.2,4.9-0.7c1.6-0.5,3.1-1.3,4.5-2.4c0.4-0.3,0.5-0.8,0.2-1.4L214.4,301.7
		z"/>
	<path class="st0" d="M228,304C228,304,228,304,228,304c-0.3,0.1-0.6,0.1-0.9,0.1c-0.3,0-0.6,0-0.8,0c-0.9,0-1.5-0.3-1.9-0.8
		c-0.5-0.6-0.7-1.6-0.7-3V279c0-0.6-0.4-0.9-0.9-0.9h-2.4c-0.6,0-1,0.4-1,0.9v21.2c0,2.5,0.6,4.5,1.7,5.8c1.1,1.4,2.8,2,4.8,2
		c0.4,0,0.8,0,1.2,0c0.4,0,0.8,0,1.2-0.1l0,0c0.5-0.1,0.8-0.5,0.8-1v-2C229.1,304.3,228.7,304,228,304z"/>
	<path class="st0" d="M247.2,287.9c-0.8-0.8-1.8-1.3-2.9-1.7c-1.1-0.4-2.4-0.6-3.8-0.6s-2.7,0.2-3.8,0.6c-1.1,0.4-2.1,1-2.9,1.7
		c-0.8,0.8-1.4,1.7-1.9,2.7c-0.4,1-0.7,2.2-0.7,3.4v5.8c0,1.2,0.2,2.4,0.7,3.4c0.4,1,1.1,1.9,1.9,2.7c0.8,0.7,1.8,1.3,2.9,1.7
		c1.1,0.4,2.4,0.6,3.8,0.6s2.7-0.2,3.8-0.6c1.1-0.4,2.1-1,2.9-1.7c0.8-0.7,1.4-1.6,1.9-2.7c0.4-1,0.7-2.2,0.7-3.4V294
		c0-1.2-0.2-2.4-0.7-3.4C248.6,289.5,248,288.6,247.2,287.9z M245.5,294v5.8c0,1.4-0.4,2.4-1.2,3.2c-0.8,0.8-2.1,1.2-3.8,1.2
		c-1.6,0-2.9-0.4-3.7-1.2c-0.8-0.8-1.2-1.8-1.2-3.2V294c0-1.4,0.4-2.5,1.2-3.3c0.8-0.8,2.1-1.2,3.7-1.2c1.7,0,2.9,0.4,3.8,1.2
		C245,291.5,245.5,292.6,245.5,294z"/>
	<path class="st0" d="M270.9,285.9h-2.4c-0.6,0-1,0.4-1,1v16.6c-0.5,0.2-1.1,0.3-1.7,0.4c-0.8,0.1-1.6,0.2-2.4,0.2
		c-1.6,0-2.9-0.4-3.8-1.2c-0.9-0.8-1.3-2.2-1.3-4.1v-11.9c0-0.6-0.4-1-0.9-1h-2.4c-0.6,0-1,0.4-1,1v12c0,1.6,0.2,3,0.7,4.1
		c0.5,1.2,1.1,2.1,2,2.9c0.8,0.8,1.8,1.3,3,1.6c1.1,0.3,2.4,0.5,3.7,0.5c1.4,0,2.8-0.1,4.1-0.4c1.3-0.3,2.6-0.7,3.7-1.2
		c0.4-0.2,0.6-0.5,0.6-1v-18.5C271.9,286.3,271.5,285.9,270.9,285.9z"/>
	<path class="st0" d="M293.4,278h-2.4c-0.6,0-1,0.4-1,0.9v7.5c-0.5-0.2-1.1-0.4-1.7-0.6c-2.1-0.6-4.6-0.4-6.5,0.3
		c-1.1,0.4-2.1,1-2.9,1.8c-0.8,0.8-1.5,1.7-1.9,2.8c-0.4,1.1-0.7,2.4-0.7,3.8v4.4c0,1.6,0.2,3,0.7,4.1c0.5,1.1,1.1,2.1,2,2.9
		c0.8,0.8,1.8,1.3,3,1.7c1.1,0.3,2.4,0.5,3.7,0.5c1.3,0,2.7-0.1,4-0.4c1.4-0.2,2.7-0.6,3.9-1.1c0.4-0.2,0.7-0.5,0.7-1V279
		C294.4,278.4,294,278,293.4,278z M290.1,290.6v12.9c-0.5,0.2-1.1,0.3-1.8,0.4c-0.8,0.1-1.6,0.2-2.5,0.2c-1.7,0-3-0.4-3.9-1.2
		c-0.9-0.8-1.3-2.1-1.3-4.1v-4.4c0-1.8,0.4-3.1,1.3-3.9c0.9-0.8,2.2-1.2,3.8-1.2c0.9,0,1.7,0.1,2.4,0.4
		C288.9,290,289.6,290.3,290.1,290.6z"/>
	<path class="st0" d="M329,280.6c-1-1-2.2-1.7-3.6-2.2c-1.4-0.5-3-0.7-4.7-0.7c-1.7,0-3.3,0.3-4.7,0.7c-1.4,0.5-2.6,1.2-3.6,2.2
		c-1,1-1.7,2.1-2.3,3.5c-0.5,1.4-0.8,2.9-0.8,4.6v8.4c0,1.7,0.3,3.2,0.8,4.5c0.5,1.4,1.3,2.5,2.3,3.5c1,1,2.2,1.7,3.6,2.2
		c1.4,0.5,3,0.8,4.7,0.8c1.7,0,3.3-0.3,4.7-0.8c1.4-0.5,2.6-1.3,3.6-2.2c1-1,1.7-2.1,2.3-3.5c0.5-1.3,0.8-2.9,0.8-4.5v-8.4
		c0-1.7-0.3-3.2-0.8-4.6C330.8,282.7,330,281.5,329,280.6z M327.6,288.6v8.4c0,2.1-0.6,3.8-1.8,5c-1.2,1.2-2.9,1.8-5.2,1.8
		c-2.3,0-4-0.6-5.2-1.8c-1.2-1.2-1.8-2.8-1.8-5v-8.4c0-2.2,0.6-3.9,1.8-5.1c1.2-1.2,2.9-1.8,5.2-1.8c2.2,0,4,0.6,5.2,1.8
		C327,284.7,327.6,286.4,327.6,288.6z"/>
	<path class="st0" d="M352.5,287.7c-0.8-0.8-1.8-1.3-3-1.7c-2.2-0.7-5-0.7-7.8-0.1c-1.4,0.3-2.7,0.6-3.9,1.1c-0.4,0.2-0.6,0.5-0.6,1
		v26.3c0,0.6,0.4,0.9,0.9,0.9h2.4c0.6,0,1-0.4,1-0.9v-7.2c0.5,0.2,1.1,0.4,1.7,0.6c0.9,0.2,1.8,0.4,2.8,0.4c1.3,0,2.6-0.2,3.7-0.6
		c1.1-0.4,2.1-1,3-1.7c0.8-0.8,1.5-1.7,1.9-2.8c0.4-1.1,0.7-2.4,0.7-3.8v-4.4c0-1.6-0.2-3-0.7-4.1
		C354,289.4,353.4,288.5,352.5,287.7z M350.9,294.7v4.4c0,1.8-0.4,3.1-1.3,3.9c-0.9,0.8-2.2,1.2-3.8,1.2c-0.9,0-1.7-0.1-2.4-0.4
		c-0.7-0.2-1.3-0.5-1.8-0.8V290c0.5-0.2,1.1-0.3,1.8-0.4c0.8-0.1,1.6-0.2,2.5-0.2c1.7,0,2.9,0.4,3.9,1.2
		C350.4,291.4,350.9,292.7,350.9,294.7z"/>
	<path class="st0" d="M369.1,303.9C369.1,303.9,369.1,303.9,369.1,303.9c-0.4,0-0.7,0-1.1,0.1c-0.3,0-0.6,0-0.8,0
		c-1.1,0-1.9-0.3-2.5-0.9l0,0c-0.6-0.6-0.9-1.6-0.9-2.8v-10.3h4.7c0.6,0,0.9-0.4,0.9-1v-2c0-0.6-0.4-0.9-0.9-0.9h-4.7l-0.3-4.4
		c-0.1-0.5-0.4-0.9-0.9-0.9h-2.1c-0.6,0-1,0.4-1,1v18.6c0,1.3,0.2,2.4,0.6,3.4c0.4,1,0.9,1.8,1.6,2.4c0.7,0.6,1.5,1.1,2.4,1.4
		c0.9,0.3,1.9,0.4,2.9,0.4c0.3,0,0.6,0,1,0s0.8,0,1.2-0.1c0.5-0.1,0.9-0.4,0.9-1v-2.1C370.1,304.3,369.8,303.9,369.1,303.9z"/>
	<path class="st0" d="M376.7,285.9h-2.4c-0.6,0-1,0.4-1,1v19.8c0,0.6,0.4,0.9,1,0.9h2.4c0.6,0,0.9-0.4,0.9-0.9v-19.8
		C377.7,286.3,377.3,285.9,376.7,285.9z"/>
	<path class="st0" d="M373.8,278.9c-0.5,0.5-0.7,1.1-0.7,1.8c0,0.7,0.2,1.3,0.7,1.8c0.5,0.5,1.1,0.7,1.8,0.7c0.7,0,1.3-0.2,1.8-0.7
		c0.5-0.5,0.7-1.1,0.7-1.8c0-0.7-0.2-1.3-0.7-1.8C376.4,278,374.8,278,373.8,278.9z"/>
	<path class="st0" d="M408.9,287.7c-0.8-0.7-1.7-1.3-2.8-1.7c-2.1-0.7-4.9-0.7-6.9,0c-0.9,0.3-1.8,0.8-2.7,1.3
		c-0.7-0.5-1.5-1-2.3-1.3c-2-0.7-4.7-0.7-7.1-0.1c-1.2,0.3-2.3,0.7-3.4,1.2c-0.4,0.2-0.7,0.6-0.7,1v18.6c0,0.6,0.4,0.9,0.9,0.9h2.4
		c0.6,0,1-0.4,1-0.9V290c0.4-0.2,0.9-0.3,1.4-0.4c0.6-0.1,1.3-0.2,2.1-0.2c2.9,0,4.3,1.5,4.3,4.6v12.6c0,0.6,0.4,0.9,0.9,0.9h2.4
		c0.6,0,0.9-0.4,0.9-0.9v-12.6c0-1.3-0.2-2.5-0.6-3.6c0.5-0.3,1-0.5,1.6-0.7c0.7-0.2,1.4-0.3,2.2-0.3c1.6,0,2.7,0.4,3.5,1.2
		c0.7,0.8,1.1,2,1.1,3.4v12.6c0,0.6,0.4,0.9,1,0.9h2.4c0.6,0,0.9-0.4,0.9-0.9v-12.5c0-1.4-0.2-2.6-0.6-3.7
		C410.3,289.4,409.7,288.5,408.9,287.7z"/>
	<path class="st0" d="M419.8,285.9h-2.4c-0.6,0-1,0.4-1,1v19.8c0,0.6,0.4,0.9,1,0.9h2.4c0.6,0,0.9-0.4,0.9-0.9v-19.8
		C420.7,286.3,420.4,285.9,419.8,285.9z"/>
	<path class="st0" d="M416.9,278.9c-0.5,0.5-0.7,1.1-0.7,1.8c0,0.7,0.2,1.3,0.7,1.8c0.5,0.5,1.1,0.7,1.8,0.7c0.7,0,1.3-0.2,1.8-0.7
		c0.5-0.5,0.7-1.1,0.7-1.8c0-0.7-0.2-1.3-0.7-1.8C419.4,278,417.8,278,416.9,278.9z"/>
	<path class="st0" d="M440.7,303.7h-10.2l10.6-14.8c0.2-0.3,0.3-0.6,0.3-0.9v-1.1c0-0.6-0.4-1-1-1h-14.4c-0.6,0-0.9,0.4-0.9,1v2
		c0,0.6,0.4,1,0.9,1h9.3l-10.5,14.7c-0.2,0.2-0.3,0.5-0.3,0.9v1.2c0,0.6,0.4,0.9,0.9,0.9h15.2c0.6,0,0.9-0.4,0.9-0.9v-2
		C441.6,304.1,441.2,303.7,440.7,303.7z"/>
	<path class="st0" d="M459.6,287.6c-0.8-0.7-1.8-1.2-2.8-1.6c-2.1-0.7-4.5-0.7-6.6,0c-1.1,0.3-2.1,0.9-2.9,1.6
		c-0.8,0.7-1.5,1.6-2,2.7c-0.5,1.1-0.7,2.3-0.7,3.8v6.1c0,1.3,0.3,2.5,0.8,3.5c0.5,1,1.2,1.9,2,2.5c0.8,0.7,1.8,1.2,2.9,1.5
		c1.1,0.3,2.2,0.5,3.3,0.5c1.7,0,3.3-0.3,4.7-0.8c1.3-0.6,2.5-1.3,3.6-2.2c0.4-0.4,0.5-0.9,0.1-1.3l-1.1-1.5
		c-0.3-0.5-0.8-0.6-1.4-0.2c-0.7,0.6-1.5,1.1-2.5,1.5c-0.9,0.4-2,0.6-3.3,0.6c-1.4,0-2.5-0.4-3.4-1.1c-0.9-0.7-1.3-1.7-1.3-3v-1.2
		h12.6c0.6,0,0.9-0.4,0.9-1V294c0-1.4-0.3-2.7-0.7-3.8C461.1,289.2,460.5,288.3,459.6,287.6z M448.9,295.1V294
		c0-1.6,0.4-2.7,1.3-3.4c0.9-0.7,2-1.1,3.4-1.1c1.4,0,2.5,0.4,3.4,1.1c0.9,0.7,1.3,1.8,1.3,3.4v1.2H448.9z"/>
	<path class="st0" d="M483.1,278h-2.4c-0.6,0-1,0.4-1,0.9v7.5c-0.5-0.2-1.1-0.4-1.7-0.6c-2.1-0.6-4.6-0.4-6.5,0.3
		c-1.1,0.4-2.1,1-2.9,1.8c-0.8,0.8-1.5,1.7-1.9,2.8c-0.4,1.1-0.7,2.4-0.7,3.8v4.4c0,1.6,0.2,3,0.7,4.1c0.5,1.1,1.1,2.1,2,2.9
		c0.8,0.8,1.8,1.3,3,1.7c1.1,0.3,2.4,0.5,3.7,0.5c1.3,0,2.7-0.1,4-0.4c1.4-0.2,2.7-0.6,3.9-1.1c0.4-0.2,0.7-0.5,0.7-1V279
		C484,278.4,483.6,278,483.1,278z M479.7,290.6v12.9c-0.5,0.2-1.1,0.3-1.8,0.4c-0.8,0.1-1.6,0.2-2.5,0.2c-1.7,0-3-0.4-3.9-1.2
		c-0.9-0.8-1.3-2.1-1.3-4.1v-4.4c0-1.8,0.4-3.1,1.3-3.9c0.9-0.8,2.2-1.2,3.8-1.2c0.9,0,1.7,0.1,2.4,0.4
		C478.6,290,479.2,290.3,479.7,290.6z"/>
	<path class="st0" d="M510.5,278h-9.6c-0.6,0-0.9,0.4-0.9,0.9v27.7c0,0.6,0.4,0.9,0.9,0.9h2.5c0.6,0,0.9-0.4,0.9-0.9v-8.9h6.2
		c3.3,0,5.8-0.9,7.7-2.6c1.8-1.7,2.8-4.2,2.8-7.3c0-3.1-0.9-5.5-2.7-7.2C516.4,278.9,513.8,278,510.5,278z M504.3,282.2h5.8
		c4.3,0,6.3,1.9,6.3,5.7c0,3.9-2.1,5.7-6.3,5.7h-5.8V282.2z"/>
	<path class="st0" d="M540.2,287.9c-0.8-0.8-1.8-1.3-2.9-1.7c-1.1-0.4-2.4-0.6-3.8-0.6s-2.7,0.2-3.8,0.6c-1.1,0.4-2.1,1-2.9,1.7
		c-0.8,0.8-1.4,1.7-1.9,2.7c-0.4,1-0.7,2.2-0.7,3.4v5.8c0,1.2,0.2,2.4,0.7,3.4c0.4,1,1.1,1.9,1.9,2.7c0.8,0.7,1.8,1.3,2.9,1.7
		c1.1,0.4,2.4,0.6,3.8,0.6s2.7-0.2,3.8-0.6c1.1-0.4,2.1-1,2.9-1.7c0.8-0.7,1.4-1.6,1.9-2.7c0.4-1,0.7-2.2,0.7-3.4V294
		c0-1.2-0.2-2.4-0.7-3.4C541.6,289.5,541,288.6,540.2,287.9z M538.5,294v5.8c0,1.4-0.4,2.4-1.2,3.2c-0.8,0.8-2.1,1.2-3.8,1.2
		c-1.6,0-2.9-0.4-3.7-1.2c-0.8-0.8-1.2-1.8-1.2-3.2V294c0-1.4,0.4-2.5,1.2-3.3c0.8-0.8,2.1-1.2,3.7-1.2c1.7,0,2.9,0.4,3.8,1.2
		C538,291.5,538.5,292.6,538.5,294z"/>
	<path class="st0" d="M547.7,278.9c-0.5,0.5-0.7,1.1-0.7,1.8c0,0.7,0.2,1.3,0.7,1.8c0.5,0.5,1.1,0.7,1.8,0.7c0.7,0,1.3-0.2,1.8-0.7
		c0.5-0.5,0.7-1.1,0.7-1.8c0-0.7-0.2-1.3-0.7-1.8C550.3,278,548.7,278,547.7,278.9z"/>
	<path class="st0" d="M550.6,285.9h-2.4c-0.6,0-1,0.4-1,1v19.8c0,0.6,0.4,0.9,1,0.9h2.4c0.6,0,0.9-0.4,0.9-0.9v-19.8
		C551.6,286.3,551.2,285.9,550.6,285.9z"/>
	<path class="st0" d="M572.2,287.7c-0.8-0.8-1.9-1.3-3-1.6c-2.3-0.7-5.3-0.6-7.9-0.1c-1.3,0.3-2.6,0.7-3.8,1.2
		c-0.4,0.2-0.6,0.6-0.6,1v18.6c0,0.6,0.4,0.9,0.9,0.9h2.4c0.6,0,1-0.4,1-0.9v-16.6c0.5-0.2,1.1-0.3,1.8-0.4c0.8-0.1,1.6-0.2,2.5-0.2
		c1.7,0,3,0.4,3.9,1.2c0.9,0.8,1.3,2.1,1.3,4.1v12c0,0.6,0.4,0.9,0.9,0.9h2.4c0.6,0,1-0.4,1-0.9v-12c0-1.6-0.2-3-0.7-4.1
		C573.7,289.4,573,288.4,572.2,287.7z"/>
	<path class="st0" d="M589.4,303.9C589.4,303.9,589.4,303.9,589.4,303.9c-0.4,0-0.7,0-1.1,0.1c-0.3,0-0.6,0-0.8,0
		c-1.1,0-1.9-0.3-2.5-0.9l0,0c-0.6-0.6-0.9-1.6-0.9-2.8v-10.3h4.7c0.6,0,0.9-0.4,0.9-1v-2c0-0.6-0.4-0.9-0.9-0.9h-4.7l-0.3-4.4
		c-0.1-0.5-0.4-0.9-0.9-0.9h-2.1c-0.6,0-1,0.4-1,1v18.6c0,1.3,0.2,2.4,0.6,3.4c0.4,1,0.9,1.8,1.6,2.4c0.7,0.6,1.5,1.1,2.4,1.4
		c0.9,0.3,1.9,0.4,2.9,0.4c0.3,0,0.6,0,1,0c0.4,0,0.8,0,1.2-0.1c0.5-0.1,0.9-0.4,0.9-1v-2.1C590.4,304.3,590,303.9,589.4,303.9z"/>
	<path class="st0" d="M622.6,301.7c-0.2-0.3-0.4-0.5-0.7-0.5c-0.2,0-0.4,0-0.6,0.2c-1,0.8-2.1,1.4-3.3,1.8c-1.2,0.4-2.5,0.6-3.7,0.6
		c-2.1,0-3.8-0.6-4.9-1.7c-1.1-1.1-1.7-2.6-1.7-4.5V288c0-1.9,0.5-3.4,1.7-4.5c1.1-1.1,2.7-1.7,4.8-1.7c1.1,0,2.2,0.2,3.3,0.5
		c1.1,0.3,2.1,0.9,3.1,1.6c0.5,0.3,1,0.2,1.3-0.2l1.3-1.9c0.3-0.5,0.2-1-0.2-1.3c-1.3-1-2.7-1.7-4.2-2.2c-2.9-0.9-6.1-1-8.8-0.1
		c-1.3,0.4-2.5,1.1-3.5,2c-1,0.9-1.8,2-2.4,3.3c-0.6,1.3-0.9,2.8-0.9,4.5v9.7c0,1.7,0.3,3.2,0.9,4.5c0.6,1.3,1.4,2.4,2.4,3.3
		c1,0.9,2.2,1.5,3.5,2c1.3,0.4,2.8,0.6,4.3,0.6c1.6,0,3.3-0.2,4.9-0.7c1.6-0.5,3.1-1.3,4.5-2.4c0.4-0.3,0.5-0.8,0.2-1.4L622.6,301.7
		z"/>
	<path class="st0" d="M636.2,304C636.2,304,636.2,304,636.2,304c-0.3,0.1-0.6,0.1-0.9,0.1c-0.3,0-0.6,0-0.8,0
		c-0.9,0-1.5-0.3-1.9-0.8c-0.5-0.6-0.7-1.6-0.7-3V279c0-0.6-0.4-0.9-0.9-0.9h-2.4c-0.6,0-1,0.4-1,0.9v21.2c0,2.5,0.6,4.5,1.7,5.8
		c1.1,1.4,2.8,2,4.8,2c0.4,0,0.8,0,1.2,0c0.4,0,0.8,0,1.2-0.1l0,0c0.5-0.1,0.8-0.5,0.8-1v-2C637.3,304.3,636.9,304,636.2,304z"/>
	<path class="st0" d="M655.4,287.9c-0.8-0.8-1.8-1.3-2.9-1.7c-1.1-0.4-2.4-0.6-3.8-0.6s-2.7,0.2-3.8,0.6c-1.1,0.4-2.1,1-2.9,1.7
		c-0.8,0.8-1.4,1.7-1.9,2.7c-0.4,1-0.7,2.2-0.7,3.4v5.8c0,1.2,0.2,2.4,0.7,3.4c0.4,1,1.1,1.9,1.9,2.7c0.8,0.7,1.8,1.3,2.9,1.7
		c1.1,0.4,2.4,0.6,3.8,0.6s2.7-0.2,3.8-0.6c1.1-0.4,2.1-1,2.9-1.7c0.8-0.7,1.4-1.6,1.9-2.7c0.4-1,0.7-2.2,0.7-3.4V294
		c0-1.2-0.2-2.4-0.7-3.4C656.8,289.5,656.2,288.6,655.4,287.9z M653.7,294v5.8c0,1.4-0.4,2.4-1.2,3.2c-0.8,0.8-2.1,1.2-3.8,1.2
		c-1.6,0-2.9-0.4-3.7-1.2c-0.8-0.8-1.2-1.8-1.2-3.2V294c0-1.4,0.4-2.5,1.2-3.3c0.8-0.8,2.1-1.2,3.7-1.2c1.7,0,2.9,0.4,3.8,1.2
		C653.2,291.5,653.7,292.6,653.7,294z"/>
	<path class="st0" d="M679.1,285.9h-2.4c-0.6,0-1,0.4-1,1v16.6c-0.5,0.2-1.1,0.3-1.7,0.4c-0.8,0.1-1.6,0.2-2.4,0.2
		c-1.6,0-2.9-0.4-3.8-1.2c-0.9-0.8-1.3-2.2-1.3-4.1v-11.9c0-0.6-0.4-1-0.9-1h-2.4c-0.6,0-1,0.4-1,1v12c0,1.6,0.2,3,0.7,4.1
		c0.5,1.2,1.1,2.1,2,2.9c0.8,0.8,1.8,1.3,3,1.6c1.1,0.3,2.4,0.5,3.7,0.5c1.4,0,2.8-0.1,4.1-0.4c1.3-0.3,2.6-0.7,3.7-1.2
		c0.4-0.2,0.6-0.5,0.6-1v-18.5C680.1,286.3,679.7,285.9,679.1,285.9z"/>
	<path class="st0" d="M701.6,278h-2.4c-0.6,0-1,0.4-1,0.9v7.5c-0.5-0.2-1.1-0.4-1.7-0.6c-2.1-0.6-4.6-0.4-6.5,0.3
		c-1.1,0.4-2.1,1-2.9,1.8c-0.8,0.8-1.5,1.7-1.9,2.8c-0.4,1.1-0.7,2.4-0.7,3.8v4.4c0,1.6,0.2,3,0.7,4.1c0.5,1.1,1.1,2.1,2,2.9
		c0.8,0.8,1.8,1.3,3,1.7c1.1,0.3,2.4,0.5,3.7,0.5c1.3,0,2.7-0.1,4-0.4c1.4-0.2,2.7-0.6,3.9-1.1c0.4-0.2,0.7-0.5,0.7-1V279
		C702.6,278.4,702.2,278,701.6,278z M698.3,290.6v12.9c-0.5,0.2-1.1,0.3-1.8,0.4c-0.8,0.1-1.6,0.2-2.5,0.2c-1.7,0-3-0.4-3.9-1.2
		c-0.9-0.8-1.3-2.1-1.3-4.1v-4.4c0-1.8,0.4-3.1,1.3-3.9c0.9-0.8,2.2-1.2,3.8-1.2c0.9,0,1.7,0.1,2.4,0.4
		C697.1,290,697.7,290.3,698.3,290.6z"/>
</g>
<g>
	<circle class="st1" cx="131.8" cy="291.2" r="44.6"/>
	<g>
		<circle class="st0" cx="132.6" cy="278.3" r="7.5"/>
		<path class="st2" d="M132.6,286.6c-4.6,0-8.3-3.7-8.3-8.3c0-4.6,3.7-8.3,8.3-8.3c4.6,0,8.3,3.7,8.3,8.3
			C140.9,282.9,137.2,286.6,132.6,286.6z M132.6,271.6c-3.7,0-6.6,3-6.6,6.6s3,6.6,6.6,6.6c3.7,0,6.6-3,6.6-6.6
			S136.2,271.6,132.6,271.6z"/>
	</g>
	<g>
		<circle class="st0" cx="118.3" cy="291.4" r="4.9"/>
		<path class="st2" d="M118.3,297.1c-1.5,0-2.9-0.6-4.1-1.7l0,0c-1.1-1.1-1.7-2.5-1.7-4.1c0-1.5,0.6-3,1.7-4.1
			c2.2-2.2,5.9-2.2,8.1,0c1.1,1.1,1.7,2.5,1.7,4.1c0,1.5-0.6,3-1.7,4.1C121.3,296.5,119.8,297.1,118.3,297.1z M115.5,294.2
			c1.6,1.6,4.1,1.6,5.7,0c0.8-0.8,1.2-1.8,1.2-2.8c0-1.1-0.4-2.1-1.2-2.8c-1.6-1.6-4.1-1.6-5.7,0c-0.8,0.8-1.2,1.8-1.2,2.8
			C114.3,292.4,114.7,293.5,115.5,294.2L115.5,294.2z"/>
	</g>
	<g>
		<circle class="st0" cx="146.2" cy="292.1" r="4.9"/>
		<path class="st2" d="M146.2,297.8c-3.2,0-5.7-2.6-5.7-5.7c0-3.2,2.6-5.7,5.7-5.7c3.2,0,5.7,2.6,5.7,5.7
			C151.9,295.2,149.3,297.8,146.2,297.8z M146.2,288c-2.2,0-4,1.8-4,4c0,2.2,1.8,4,4,4s4-1.8,4-4C150.2,289.9,148.4,288,146.2,288z"
			/>
	</g>
	<g>
		<circle class="st0" cx="140.2" cy="303.7" r="2.6"/>
		<path class="st2" d="M140.2,307.1c-1.1,0-2.2-0.5-2.8-1.5v0c-1-1.6-0.6-3.7,1-4.7c0.8-0.5,1.7-0.7,2.5-0.5
			c0.9,0.2,1.6,0.7,2.1,1.5c0.5,0.8,0.7,1.7,0.5,2.5c-0.2,0.9-0.7,1.6-1.5,2.1C141.5,306.9,140.9,307.1,140.2,307.1z M138.7,304.7
			c0.6,0.9,1.7,1.1,2.6,0.6c0.4-0.3,0.7-0.7,0.8-1.2c0.1-0.5,0-1-0.3-1.4c-0.3-0.4-0.7-0.7-1.2-0.8c-0.5-0.1-1,0-1.4,0.3
			C138.3,302.7,138.1,303.9,138.7,304.7L138.7,304.7z"/>
	</g>
	<g>
		<circle class="st0" cx="156.6" cy="303.7" r="2.6"/>
		<path class="st2" d="M156.6,307.1c-0.2,0-0.5,0-0.7-0.1c-0.9-0.2-1.6-0.7-2.1-1.5l0,0c-0.5-0.8-0.7-1.7-0.5-2.5
			c0.2-0.9,0.7-1.6,1.5-2.1c1.6-1,3.7-0.6,4.7,1c0.5,0.8,0.7,1.7,0.5,2.5c-0.2,0.9-0.7,1.6-1.5,2.1
			C157.9,306.9,157.2,307.1,156.6,307.1z M156.6,301.8c-0.4,0-0.7,0.1-1,0.3c-0.4,0.3-0.7,0.7-0.8,1.2c-0.1,0.5,0,1,0.3,1.4l0,0
			c0.3,0.4,0.7,0.7,1.2,0.8c0.5,0.1,1,0,1.4-0.3c0.4-0.3,0.7-0.7,0.8-1.2c0.1-0.5,0-1-0.3-1.4C157.8,302.1,157.2,301.8,156.6,301.8z
			"/>
	</g>
	<g>
		<circle class="st0" cx="107.5" cy="303.7" r="2.6"/>
		<path class="st2" d="M107.5,307.1c-0.2,0-0.5,0-0.7-0.1c-0.9-0.2-1.6-0.7-2.1-1.5c-0.5-0.8-0.7-1.7-0.5-2.5
			c0.2-0.9,0.7-1.6,1.5-2.1c1.6-1,3.7-0.6,4.7,1c0.5,0.8,0.7,1.7,0.5,2.5c-0.2,0.9-0.7,1.6-1.5,2.1
			C108.8,306.9,108.2,307.1,107.5,307.1z M107.5,301.8c-0.4,0-0.7,0.1-1,0.3c-0.4,0.3-0.7,0.7-0.8,1.2c-0.1,0.5,0,1,0.3,1.4l0,0
			c0.3,0.4,0.7,0.7,1.2,0.8c0.5,0.1,1,0,1.4-0.3c0.4-0.3,0.7-0.7,0.8-1.2c0.1-0.5,0-1-0.3-1.4C108.8,302.1,108.2,301.8,107.5,301.8z
			"/>
	</g>
	<g>
		<circle class="st0" cx="123.9" cy="303.7" r="2.6"/>
		<path class="st2" d="M123.9,307.1c-0.4,0-0.9-0.1-1.3-0.3l0,0c-1.7-0.7-2.5-2.7-1.8-4.4c0.7-1.7,2.7-2.5,4.4-1.8
			c1.7,0.7,2.5,2.7,1.8,4.4C126.5,306.3,125.2,307.1,123.9,307.1z M123.2,305.4c1,0.4,2.1,0,2.5-1c0.4-1,0-2.1-1-2.5
			c-1-0.4-2.1,0-2.5,1C121.8,303.9,122.2,305,123.2,305.4L123.2,305.4z"/>
	</g>
	<path class="st2" d="M132,317.7c-6.7,0-13.5-0.1-20.2,0c-8.5,0.1-15.9-6.7-17.6-14.6c-1.4-6.5,0.5-11.9,5.4-16.2
		c0.3-0.3,0.4-0.9,0.4-1.3c-1.1-6.4,2.5-12,8.6-13.4c1.3-0.3,2.8-0.2,4.2-0.2c0.7,0,1.1-0.1,1.4-0.7c2.7-4.6,6.6-7.8,11.7-9.4
		c10.6-3.4,22.6,1.8,27.5,12.4c0.7,1.4,1.1,2.9,1.5,4.3c0.2,0.6,0.5,0.9,1.1,1.1c8.3,2.5,14.4,10.6,14.4,19.2
		c0,9.3-5.7,16.6-14.7,18.5c-1,0.2-2,0.3-3,0.3C145.8,317.7,138.9,317.7,132,317.7z M131.8,313.8c6.7,0,13.4,0,20.2,0
		c9.4,0,16.4-8.8,14.2-18.1c-1.6-6.7-5.7-11-12.5-12.7c-1.4-0.4-1.9-0.8-2.1-2.2c-0.2-0.8-0.3-1.6-0.5-2.3
		c-2.9-10.2-14.5-16.3-24.2-12.7c-4.5,1.7-7.7,4.6-9.8,8.8c-0.8,1.7-1.4,1.9-3.2,1.5c-6.5-1.6-11.5,3.7-9.6,10.1
		c0.5,1.7,0.3,2.1-1.1,3.1c-3.6,2.5-5.5,6.1-5.4,10.6c0.1,7.2,6.5,14.1,14,13.9C118.4,313.7,125.1,313.8,131.8,313.8z"/>
</g>
</svg>
