<?xml version="1.0" encoding="utf-8"?>
<!-- Generator: Adobe Illustrator 25.4.1, SVG Export Plug-In . SVG Version: 6.00 Build 0)  -->
<svg version="1.1" id="Layer_1" xmlns="http://www.w3.org/2000/svg" xmlns:xlink="http://www.w3.org/1999/xlink" x="0px" y="0px"
	 viewBox="0 0 792 612" style="enable-background:new 0 0 792 612;" xml:space="preserve">
<style type="text/css">
	.st0{fill:#1A2854;}
	.st1{fill:#3DAE2B;}
	.st2{fill:#FFFFFF;}
</style>
<g>
	<circle class="st0" cx="372.1" cy="214.4" r="82.3"/>
	<g>
		<circle class="st1" cx="373.5" cy="190.6" r="13.8"/>
		<path class="st2" d="M373.5,206c-8.5,0-15.4-6.9-15.4-15.4c0-8.5,6.9-15.4,15.4-15.4s15.4,6.9,15.4,15.4
			C388.9,199.1,382,206,373.5,206z M373.5,178.3c-6.8,0-12.2,5.5-12.2,12.2s5.5,12.2,12.2,12.2c6.8,0,12.2-5.5,12.2-12.2
			S380.3,178.3,373.5,178.3z"/>
	</g>
	<g>
		<circle class="st1" cx="347.2" cy="214.8" r="9"/>
		<path class="st2" d="M347.2,225.3c-2.7,0-5.4-1-7.5-3.1l0,0c-2-2-3.1-4.7-3.1-7.5c0-2.8,1.1-5.5,3.1-7.5c4.1-4.1,10.8-4.1,15,0
			c2,2,3.1,4.7,3.1,7.5c0,2.8-1.1,5.5-3.1,7.5C352.6,224.3,349.9,225.3,347.2,225.3z M342,220c2.9,2.9,7.6,2.9,10.5,0
			c1.4-1.4,2.2-3.3,2.2-5.3c0-2-0.8-3.8-2.2-5.3c-2.9-2.9-7.6-2.9-10.5,0c-1.4,1.4-2.2,3.3-2.2,5.3C339.8,216.7,340.6,218.6,342,220
			L342,220z"/>
	</g>
	<g>
		<circle class="st1" cx="398.7" cy="216" r="9"/>
		<path class="st2" d="M398.7,226.6c-5.8,0-10.6-4.7-10.6-10.6c0-5.8,4.7-10.6,10.6-10.6c5.8,0,10.6,4.7,10.6,10.6
			C409.3,221.9,404.5,226.6,398.7,226.6z M398.7,208.6c-4.1,0-7.4,3.3-7.4,7.4s3.3,7.4,7.4,7.4c4.1,0,7.4-3.3,7.4-7.4
			S402.8,208.6,398.7,208.6z"/>
	</g>
	<g>
		<circle class="st1" cx="387.7" cy="237.5" r="4.9"/>
		<path class="st2" d="M387.7,243.8c-2,0-4.1-1-5.2-2.8v0c-1.9-2.9-1-6.8,1.8-8.6c1.4-0.9,3.1-1.2,4.7-0.9c1.6,0.3,3,1.3,3.9,2.7
			c0.9,1.4,1.2,3.1,0.9,4.7c-0.3,1.6-1.3,3-2.7,3.9C390,243.5,388.9,243.8,387.7,243.8z M384.8,239.4c1,1.6,3.2,2.1,4.8,1
			c0.8-0.5,1.3-1.3,1.5-2.2c0.2-0.9,0-1.8-0.5-2.6c-0.5-0.8-1.3-1.3-2.2-1.5c-0.9-0.2-1.8,0-2.6,0.5
			C384.2,235.7,383.7,237.8,384.8,239.4L384.8,239.4z"/>
	</g>
	<g>
		<circle class="st1" cx="417.9" cy="237.5" r="4.9"/>
		<path class="st2" d="M417.9,243.8c-0.4,0-0.9,0-1.3-0.1c-1.6-0.3-3-1.3-3.9-2.7l0,0c-0.9-1.4-1.2-3.1-0.9-4.7
			c0.3-1.6,1.3-3,2.7-3.9c2.9-1.9,6.8-1,8.6,1.8c0.9,1.4,1.2,3.1,0.9,4.7c-0.3,1.6-1.3,3-2.7,3.9
			C420.2,243.4,419.1,243.8,417.9,243.8z M417.9,234.1c-0.6,0-1.3,0.2-1.9,0.6c-0.8,0.5-1.3,1.3-1.5,2.2c-0.2,0.9,0,1.8,0.5,2.6l0,0
			c0.5,0.8,1.3,1.3,2.2,1.5c0.9,0.2,1.8,0,2.6-0.5c0.8-0.5,1.3-1.3,1.5-2.2c0.2-0.9,0-1.8-0.5-2.6
			C420.1,234.6,419,234.1,417.9,234.1z"/>
	</g>
	<g>
		<circle class="st1" cx="327.3" cy="237.5" r="4.9"/>
		<path class="st2" d="M327.3,243.8c-0.4,0-0.9,0-1.3-0.1c-1.6-0.3-3-1.3-3.9-2.7c-0.9-1.4-1.2-3.1-0.9-4.7c0.3-1.6,1.3-3,2.7-3.9
			c2.9-1.9,6.8-1,8.6,1.8c0.9,1.4,1.2,3.1,0.9,4.7c-0.3,1.6-1.3,3-2.7,3.9C329.7,243.4,328.5,243.8,327.3,243.8z M327.3,234.1
			c-0.6,0-1.3,0.2-1.9,0.6c-0.8,0.5-1.3,1.3-1.5,2.2c-0.2,0.9,0,1.8,0.5,2.6l0,0c0.5,0.8,1.3,1.3,2.2,1.5c0.9,0.2,1.8,0,2.6-0.5
			c0.8-0.5,1.3-1.3,1.5-2.2c0.2-0.9,0-1.8-0.5-2.6C329.5,234.6,328.4,234.1,327.3,234.1z"/>
	</g>
	<g>
		<circle class="st1" cx="357.5" cy="237.5" r="4.9"/>
		<path class="st2" d="M357.5,243.8c-0.8,0-1.6-0.2-2.4-0.5l0,0c-3.2-1.3-4.7-5-3.3-8.2c1.3-3.2,5-4.7,8.2-3.3
			c3.2,1.3,4.7,5,3.3,8.2C362.2,242.4,359.9,243.8,357.5,243.8z M356.1,240.7c1.8,0.7,3.8-0.1,4.6-1.8c0.7-1.8-0.1-3.8-1.8-4.6
			c-1.8-0.7-3.8,0.1-4.6,1.8C353.5,238,354.4,240,356.1,240.7L356.1,240.7z"/>
	</g>
	<path class="st2" d="M372.4,263.4c-12.4,0-24.8-0.2-37.3,0c-15.7,0.2-29.4-12.4-32.5-27c-2.6-12.1,0.9-22,9.9-29.9
		c0.5-0.5,0.8-1.6,0.7-2.4c-2-11.8,4.6-22.2,16-24.8c2.5-0.6,5.1-0.5,7.7-0.4c1.2,0,1.9-0.1,2.6-1.2c4.9-8.5,12.2-14.3,21.6-17.4
		c19.6-6.3,41.7,3.3,50.9,22.8c1.2,2.6,2,5.3,2.8,8c0.3,1.1,0.8,1.7,2,2c15.4,4.7,26.5,19.6,26.6,35.5c0.1,17.2-10.5,30.6-27.1,34.2
		c-1.8,0.4-3.6,0.6-5.5,0.6C398,263.5,385.2,263.4,372.4,263.4z M372.1,256.2c12.4,0,24.8,0,37.2,0c17.3,0,30.3-16.3,26.2-33.4
		c-3-12.3-10.6-20.3-23.1-23.4c-2.6-0.7-3.4-1.5-4-4.1c-0.3-1.4-0.6-2.9-1-4.3c-5.4-18.9-26.8-30.1-44.7-23.4
		c-8.2,3.1-14.3,8.5-18.1,16.3c-1.5,3.1-2.6,3.5-5.9,2.7c-12.1-2.9-21.3,6.8-17.7,18.7c0.9,3.1,0.6,4-1.9,5.8
		c-6.7,4.7-10.1,11.2-9.9,19.5c0.2,13.3,12.1,26.1,25.9,25.7C347.4,256,359.7,256.2,372.1,256.2z"/>
</g>
</svg>
