<?xml version="1.0" encoding="utf-8"?>
<!-- Generator: Adobe Illustrator 25.4.1, SVG Export Plug-In . SVG Version: 6.00 Build 0)  -->
<svg version="1.1" id="Layer_1" xmlns="http://www.w3.org/2000/svg" xmlns:xlink="http://www.w3.org/1999/xlink" x="0px" y="0px"
	 viewBox="0 0 792 612" style="enable-background:new 0 0 792 612;" xml:space="preserve">
<style type="text/css">
	.st0{fill:#3DAE2B;}
	.st1{fill:#1A2854;}
	.st2{fill:#FFFFFF;}
</style>
<g>
	<g>
		<path class="st0" d="M344.1,301.9c-0.1-0.1-0.2-0.2-0.3-0.2c-0.1,0-0.2,0-0.3,0.1c-0.4,0.3-0.9,0.6-1.4,0.8
			c-0.5,0.2-1,0.3-1.6,0.3c-0.9,0-1.6-0.2-2.1-0.7c-0.5-0.5-0.7-1.1-0.7-1.9V296c0-0.8,0.2-1.4,0.7-1.9c0.5-0.5,1.2-0.7,2-0.7
			c0.5,0,0.9,0.1,1.4,0.2c0.5,0.1,0.9,0.4,1.3,0.7c0.3,0.1,0.5,0,0.6-0.1l0.5-0.8c0.1-0.2,0.1-0.4-0.1-0.6c-0.6-0.4-1.2-0.7-1.8-0.9
			c-1.2-0.4-2.6-0.4-3.8,0c-0.6,0.2-1.1,0.5-1.5,0.8c-0.4,0.4-0.8,0.8-1,1.4c-0.2,0.6-0.4,1.2-0.4,1.9v4.1c0,0.7,0.1,1.4,0.4,1.9
			c0.2,0.5,0.6,1,1,1.4c0.4,0.4,0.9,0.7,1.5,0.8c0.6,0.2,1.2,0.3,1.8,0.3c0.7,0,1.4-0.1,2.1-0.3c0.7-0.2,1.3-0.6,1.9-1
			c0.2-0.1,0.2-0.4,0.1-0.6L344.1,301.9z"/>
		<path class="st0" d="M349.8,302.8c-0.1,0-0.3,0-0.4,0c-0.1,0-0.2,0-0.3,0c-0.4,0-0.6-0.1-0.8-0.3c-0.2-0.2-0.3-0.7-0.3-1.3v-9
			c0-0.3-0.2-0.4-0.4-0.4h-1c-0.3,0-0.4,0.2-0.4,0.4v9c0,1.1,0.2,1.9,0.7,2.5c0.5,0.6,1.2,0.9,2.1,0.9c0.2,0,0.3,0,0.5,0
			c0.2,0,0.3,0,0.5,0l0,0c0.2,0,0.4-0.2,0.4-0.4v-0.9C350.3,303,350.1,302.8,349.8,302.8z"/>
		<path class="st0" d="M358,296c-0.3-0.3-0.8-0.6-1.2-0.7c-1-0.3-2.3-0.3-3.3,0c-0.5,0.2-0.9,0.4-1.3,0.7c-0.3,0.3-0.6,0.7-0.8,1.1
			c-0.2,0.4-0.3,0.9-0.3,1.5v2.4c0,0.5,0.1,1,0.3,1.4c0.2,0.4,0.5,0.8,0.8,1.1c0.3,0.3,0.8,0.6,1.3,0.7c0.5,0.2,1,0.2,1.6,0.2
			s1.1-0.1,1.6-0.2c0.5-0.2,0.9-0.4,1.3-0.7c0.3-0.3,0.6-0.7,0.8-1.1c0.2-0.4,0.3-0.9,0.3-1.4v-2.4c0-0.5-0.1-1-0.3-1.5
			C358.6,296.7,358.4,296.3,358,296z M357.2,298.6v2.4c0,0.6-0.2,1-0.5,1.4c-0.4,0.3-0.9,0.5-1.6,0.5c-0.7,0-1.2-0.2-1.6-0.5
			c-0.4-0.3-0.5-0.8-0.5-1.4v-2.4c0-0.6,0.2-1,0.5-1.4c0.4-0.3,0.9-0.5,1.6-0.5c0.7,0,1.2,0.2,1.6,0.5
			C357.1,297.5,357.2,298,357.2,298.6z"/>
		<path class="st0" d="M368.1,295.1h-1c-0.3,0-0.4,0.2-0.4,0.4v7c-0.2,0.1-0.5,0.1-0.7,0.2c-0.3,0.1-0.7,0.1-1,0.1
			c-0.7,0-1.2-0.2-1.6-0.5c-0.4-0.3-0.5-0.9-0.5-1.7v-5.1c0-0.3-0.2-0.4-0.4-0.4h-1c-0.3,0-0.4,0.2-0.4,0.4v5.1
			c0,0.7,0.1,1.3,0.3,1.7c0.2,0.5,0.5,0.9,0.8,1.2c0.4,0.3,0.8,0.6,1.3,0.7c0.5,0.1,1,0.2,1.6,0.2c0.6,0,1.2-0.1,1.7-0.2
			c0.6-0.1,1.1-0.3,1.6-0.5c0.1,0,0.3-0.1,0.3-0.4v-7.9C368.5,295.3,368.3,295.1,368.1,295.1z"/>
		<path class="st0" d="M377.7,291.8h-1c-0.3,0-0.4,0.2-0.4,0.4v3.2c-0.2-0.1-0.5-0.2-0.7-0.2c-0.9-0.2-2-0.2-2.8,0.1
			c-0.5,0.2-0.9,0.4-1.2,0.8c-0.4,0.3-0.6,0.7-0.8,1.2c-0.2,0.5-0.3,1-0.3,1.6v1.9c0,0.7,0.1,1.3,0.3,1.7c0.2,0.5,0.5,0.9,0.8,1.2
			c0.4,0.3,0.8,0.6,1.3,0.7c0.5,0.1,1,0.2,1.6,0.2c0.6,0,1.1-0.1,1.7-0.2c0.6-0.1,1.1-0.3,1.6-0.5c0.2-0.1,0.3-0.2,0.3-0.4v-11.3
			C378.1,291.9,377.9,291.8,377.7,291.8z M376.2,297.2v5.5c-0.2,0.1-0.5,0.1-0.7,0.2c-0.3,0.1-0.7,0.1-1,0.1c-0.7,0-1.2-0.2-1.6-0.5
			c-0.4-0.3-0.6-0.9-0.6-1.7v-1.9c0-0.7,0.2-1.3,0.5-1.6c0.4-0.3,0.9-0.5,1.6-0.5c0.4,0,0.7,0.1,1,0.2
			C375.7,296.9,376,297,376.2,297.2z"/>
		<path class="st0" d="M392.8,292.9c-0.4-0.4-0.9-0.7-1.5-0.9c-0.6-0.2-1.3-0.3-2-0.3c-0.7,0-1.4,0.1-2,0.3
			c-0.6,0.2-1.1,0.5-1.5,0.9c-0.4,0.4-0.7,0.9-1,1.5c-0.2,0.6-0.3,1.2-0.3,2v3.6c0,0.7,0.1,1.4,0.3,1.9c0.2,0.6,0.6,1.1,1,1.5
			c0.4,0.4,0.9,0.7,1.5,0.9c0.6,0.2,1.3,0.3,2,0.3c0.7,0,1.4-0.1,2-0.3c0.6-0.2,1.1-0.5,1.5-0.9c0.4-0.4,0.7-0.9,1-1.5
			c0.2-0.6,0.3-1.2,0.3-1.9v-3.6c0-0.7-0.1-1.4-0.3-2C393.5,293.8,393.2,293.3,392.8,292.9z M392.2,296.3v3.6c0,0.9-0.3,1.6-0.7,2.1
			c-0.5,0.5-1.2,0.8-2.2,0.8s-1.7-0.3-2.2-0.8c-0.5-0.5-0.8-1.2-0.8-2.1v-3.6c0-0.9,0.3-1.7,0.8-2.2c0.5-0.5,1.2-0.8,2.2-0.8
			s1.7,0.3,2.2,0.8C391.9,294.6,392.2,295.4,392.2,296.3z"/>
		<path class="st0" d="M402.8,295.9c-0.4-0.3-0.8-0.6-1.3-0.7c-1-0.3-2.1-0.3-3.3-0.1c-0.6,0.1-1.1,0.3-1.6,0.5
			c-0.2,0.1-0.3,0.2-0.3,0.4v11.2c0,0.2,0.2,0.4,0.4,0.4h1c0.3,0,0.4-0.2,0.4-0.4v-3c0.2,0.1,0.5,0.2,0.7,0.2
			c0.9,0.2,1.9,0.2,2.8-0.1c0.5-0.2,0.9-0.4,1.3-0.7c0.4-0.3,0.6-0.7,0.8-1.2c0.2-0.5,0.3-1,0.3-1.6v-1.9c0-0.7-0.1-1.3-0.3-1.8
			C403.4,296.6,403.1,296.2,402.8,295.9z M402,298.9v1.9c0,0.8-0.2,1.3-0.5,1.6c-0.4,0.3-0.9,0.5-1.6,0.5c-0.4,0-0.7-0.1-1-0.2
			c-0.3-0.1-0.5-0.2-0.8-0.4v-5.5c0.2-0.1,0.5-0.1,0.7-0.2c0.3-0.1,0.7-0.1,1-0.1c0.7,0,1.2,0.2,1.6,0.5
			C401.9,297.5,402,298.1,402,298.9z"/>
		<path class="st0" d="M409.8,302.8C409.8,302.8,409.8,302.8,409.8,302.8c-0.2,0-0.3,0-0.5,0c-0.1,0-0.3,0-0.3,0
			c-0.5,0-0.8-0.1-1-0.4c-0.2-0.3-0.4-0.7-0.4-1.2v-4.3h2c0.3,0,0.4-0.2,0.4-0.4v-0.9c0-0.2-0.2-0.4-0.4-0.4h-2l-0.1-1.9
			c0-0.2-0.2-0.4-0.4-0.4h-0.9c-0.3,0-0.4,0.2-0.4,0.4v7.9c0,0.5,0.1,1,0.2,1.4c0.2,0.4,0.4,0.8,0.7,1c0.3,0.3,0.6,0.5,1,0.6
			c0.4,0.1,0.8,0.2,1.3,0.2c0.1,0,0.3,0,0.4,0c0.2,0,0.3,0,0.5,0c0.2,0,0.4-0.2,0.4-0.4v-0.9C410.3,303,410.1,302.8,409.8,302.8z"/>
		<path class="st0" d="M411.8,292.1c-0.2,0.2-0.3,0.5-0.3,0.8c0,0.3,0.1,0.6,0.3,0.8c0.2,0.2,0.5,0.3,0.8,0.3c0.3,0,0.6-0.1,0.8-0.3
			c0.2-0.2,0.3-0.5,0.3-0.8c0-0.3-0.1-0.6-0.3-0.8C412.9,291.8,412.2,291.8,411.8,292.1z"/>
		<path class="st0" d="M413,295.1h-1c-0.3,0-0.4,0.2-0.4,0.4v8.4c0,0.3,0.2,0.4,0.4,0.4h1c0.3,0,0.4-0.2,0.4-0.4v-8.4
			C413.5,295.3,413.3,295.1,413,295.1z"/>
		<path class="st0" d="M426.7,295.9c-0.3-0.3-0.7-0.6-1.2-0.7c-0.9-0.3-2.1-0.3-3,0c-0.4,0.1-0.8,0.3-1.1,0.6
			c-0.3-0.2-0.6-0.4-1-0.5c-0.8-0.3-2-0.3-3-0.1c-0.5,0.1-1,0.3-1.5,0.5c-0.2,0.1-0.3,0.2-0.3,0.4v7.9c0,0.3,0.2,0.4,0.4,0.4h1
			c0.3,0,0.4-0.2,0.4-0.4v-7.1c0.2-0.1,0.4-0.1,0.6-0.2c0.3-0.1,0.6-0.1,0.9-0.1c1.2,0,1.8,0.6,1.8,2v5.4c0,0.3,0.2,0.4,0.4,0.4h1
			c0.3,0,0.4-0.2,0.4-0.4v-5.3c0-0.6-0.1-1.1-0.3-1.5c0.2-0.1,0.4-0.2,0.6-0.3c0.3-0.1,0.6-0.1,0.9-0.1c0.7,0,1.2,0.2,1.5,0.5
			c0.3,0.3,0.5,0.8,0.5,1.4v5.4c0,0.3,0.2,0.4,0.4,0.4h1c0.2,0,0.4-0.2,0.4-0.4v-5.3c0-0.6-0.1-1.1-0.3-1.6
			C427.3,296.6,427.1,296.2,426.7,295.9z"/>
		<path class="st0" d="M430.1,292.1c-0.2,0.2-0.3,0.5-0.3,0.8c0,0.3,0.1,0.6,0.3,0.8c0.2,0.2,0.5,0.3,0.8,0.3c0.3,0,0.6-0.1,0.8-0.3
			c0.2-0.2,0.3-0.5,0.3-0.8c0-0.3-0.1-0.6-0.3-0.8C431.2,291.8,430.5,291.8,430.1,292.1z"/>
		<path class="st0" d="M431.4,295.1h-1c-0.3,0-0.4,0.2-0.4,0.4v8.4c0,0.3,0.2,0.4,0.4,0.4h1c0.3,0,0.4-0.2,0.4-0.4v-8.4
			C431.8,295.3,431.6,295.1,431.4,295.1z"/>
		<path class="st0" d="M440.2,302.7h-4.3l4.5-6.3c0.1-0.1,0.1-0.2,0.1-0.4v-0.5c0-0.3-0.2-0.4-0.4-0.4H434c-0.2,0-0.4,0.2-0.4,0.4
			v0.8c0,0.3,0.2,0.4,0.4,0.4h3.9l-4.4,6.2c-0.1,0.1-0.2,0.2-0.2,0.4v0.5c0,0.3,0.2,0.4,0.4,0.4h6.5c0.3,0,0.4-0.2,0.4-0.4v-0.9
			C440.6,302.9,440.5,302.7,440.2,302.7z"/>
		<path class="st0" d="M448.3,295.8c-0.3-0.3-0.8-0.5-1.2-0.7c-0.9-0.3-1.9-0.3-2.8,0c-0.5,0.1-0.9,0.4-1.2,0.7
			c-0.4,0.3-0.6,0.7-0.9,1.1c-0.2,0.5-0.3,1-0.3,1.6v2.6c0,0.6,0.1,1.1,0.3,1.5c0.2,0.4,0.5,0.8,0.9,1.1c0.4,0.3,0.8,0.5,1.2,0.6
			c0.5,0.1,0.9,0.2,1.4,0.2c0.7,0,1.4-0.1,2-0.4c0.6-0.2,1.1-0.5,1.5-0.9c0.2-0.2,0.2-0.4,0.1-0.6l-0.5-0.6
			c-0.1-0.2-0.4-0.2-0.6-0.1c-0.3,0.2-0.7,0.5-1.1,0.6c-0.4,0.2-0.9,0.3-1.4,0.3c-0.6,0-1.1-0.1-1.4-0.4c-0.4-0.3-0.5-0.7-0.5-1.3
			v-0.5h5.3c0.3,0,0.4-0.2,0.4-0.4v-1.7c0-0.6-0.1-1.1-0.3-1.6S448.6,296.1,448.3,295.8z M443.7,299.1v-0.5c0-0.7,0.2-1.1,0.5-1.4
			c0.4-0.3,0.8-0.5,1.4-0.5c0.6,0,1,0.2,1.4,0.5c0.4,0.3,0.5,0.8,0.5,1.4v0.5H443.7z"/>
		<path class="st0" d="M458.2,291.8h-1c-0.3,0-0.4,0.2-0.4,0.4v3.2c-0.2-0.1-0.5-0.2-0.7-0.2c-0.9-0.2-2-0.2-2.8,0.1
			c-0.5,0.2-0.9,0.4-1.2,0.8c-0.4,0.3-0.6,0.7-0.8,1.2c-0.2,0.5-0.3,1-0.3,1.6v1.9c0,0.7,0.1,1.3,0.3,1.7c0.2,0.5,0.5,0.9,0.8,1.2
			c0.4,0.3,0.8,0.6,1.3,0.7c0.5,0.1,1,0.2,1.6,0.2c0.6,0,1.1-0.1,1.7-0.2c0.6-0.1,1.1-0.3,1.6-0.5c0.2-0.1,0.3-0.2,0.3-0.4v-11.3
			C458.7,291.9,458.5,291.8,458.2,291.8z M456.8,297.2v5.5c-0.2,0.1-0.5,0.1-0.7,0.2c-0.3,0.1-0.7,0.1-1,0.1c-0.7,0-1.2-0.2-1.6-0.5
			c-0.4-0.3-0.6-0.9-0.6-1.7v-1.9c0-0.7,0.2-1.3,0.5-1.6c0.4-0.3,0.9-0.5,1.6-0.5c0.4,0,0.7,0.1,1,0.2
			C456.3,296.9,456.6,297,456.8,297.2z"/>
		<path class="st0" d="M469.9,291.8h-4.1c-0.3,0-0.4,0.2-0.4,0.4V304c0,0.3,0.2,0.4,0.4,0.4h1.1c0.2,0,0.4-0.2,0.4-0.4v-3.8h2.6
			c1.4,0,2.5-0.4,3.3-1.1c0.8-0.7,1.2-1.8,1.2-3.1c0-1.3-0.4-2.3-1.2-3.1C472.4,292.2,471.3,291.8,469.9,291.8z M467.3,293.6h2.5
			c1.8,0,2.7,0.8,2.7,2.4c0,1.6-0.9,2.4-2.7,2.4h-2.5V293.6z"/>
		<path class="st0" d="M482.5,296c-0.3-0.3-0.8-0.6-1.2-0.7c-1-0.3-2.3-0.3-3.3,0c-0.5,0.2-0.9,0.4-1.2,0.7
			c-0.3,0.3-0.6,0.7-0.8,1.1c-0.2,0.4-0.3,0.9-0.3,1.5v2.4c0,0.5,0.1,1,0.3,1.4c0.2,0.4,0.5,0.8,0.8,1.1c0.3,0.3,0.8,0.6,1.3,0.7
			c0.5,0.2,1,0.2,1.6,0.2s1.1-0.1,1.6-0.2c0.5-0.2,0.9-0.4,1.3-0.7c0.3-0.3,0.6-0.7,0.8-1.1c0.2-0.4,0.3-0.9,0.3-1.4v-2.4
			c0-0.5-0.1-1-0.3-1.5C483.1,296.7,482.9,296.3,482.5,296z M481.8,298.6v2.4c0,0.6-0.2,1-0.5,1.4c-0.4,0.3-0.9,0.5-1.6,0.5
			c-0.7,0-1.2-0.2-1.6-0.5c-0.4-0.3-0.5-0.8-0.5-1.4v-2.4c0-0.6,0.2-1,0.5-1.4c0.4-0.3,0.9-0.5,1.6-0.5c0.7,0,1.2,0.2,1.6,0.5
			C481.6,297.5,481.8,298,481.8,298.6z"/>
		<path class="st0" d="M485.7,292.1c-0.2,0.2-0.3,0.5-0.3,0.8c0,0.3,0.1,0.6,0.3,0.8c0.2,0.2,0.5,0.3,0.8,0.3c0.3,0,0.6-0.1,0.8-0.3
			c0.2-0.2,0.3-0.5,0.3-0.8c0-0.3-0.1-0.6-0.3-0.8C486.8,291.8,486.1,291.8,485.7,292.1z"/>
		<path class="st0" d="M487,295.1h-1c-0.3,0-0.4,0.2-0.4,0.4v8.4c0,0.3,0.2,0.4,0.4,0.4h1c0.3,0,0.4-0.2,0.4-0.4v-8.4
			C487.4,295.3,487.2,295.1,487,295.1z"/>
		<path class="st0" d="M496.1,295.9c-0.4-0.3-0.8-0.6-1.3-0.7c-1-0.3-2.3-0.3-3.4,0c-0.6,0.1-1.1,0.3-1.6,0.5
			c-0.2,0.1-0.3,0.2-0.3,0.4v7.9c0,0.3,0.2,0.4,0.4,0.4h1c0.3,0,0.4-0.2,0.4-0.4v-7.1c0.2-0.1,0.5-0.1,0.7-0.2
			c0.3-0.1,0.7-0.1,1-0.1c0.7,0,1.3,0.2,1.6,0.5c0.4,0.3,0.6,0.9,0.6,1.7v5.1c0,0.3,0.2,0.4,0.4,0.4h1c0.3,0,0.4-0.2,0.4-0.4v-5.1
			c0-0.7-0.1-1.3-0.3-1.8C496.8,296.6,496.5,296.2,496.1,295.9z"/>
		<path class="st0" d="M503.4,302.8C503.4,302.8,503.4,302.8,503.4,302.8c-0.2,0-0.3,0-0.5,0c-0.1,0-0.3,0-0.3,0
			c-0.5,0-0.8-0.1-1-0.4c-0.2-0.3-0.4-0.7-0.4-1.2v-4.3h2c0.3,0,0.4-0.2,0.4-0.4v-0.9c0-0.2-0.2-0.4-0.4-0.4h-2l-0.1-1.9
			c0-0.2-0.2-0.4-0.4-0.4h-0.9c-0.3,0-0.4,0.2-0.4,0.4v7.9c0,0.5,0.1,1,0.2,1.4c0.2,0.4,0.4,0.8,0.7,1c0.3,0.3,0.6,0.5,1,0.6
			c0.4,0.1,0.8,0.2,1.3,0.2c0.1,0,0.3,0,0.4,0c0.2,0,0.3,0,0.5,0c0.2,0,0.4-0.2,0.4-0.4v-0.9C503.9,303,503.7,302.8,503.4,302.8z"/>
		<path class="st0" d="M517.5,301.9c-0.1-0.1-0.2-0.2-0.3-0.2c-0.1,0-0.2,0-0.3,0.1c-0.4,0.3-0.9,0.6-1.4,0.8
			c-0.5,0.2-1,0.3-1.6,0.3c-0.9,0-1.6-0.2-2.1-0.7c-0.5-0.5-0.7-1.1-0.7-1.9V296c0-0.8,0.2-1.4,0.7-1.9c0.5-0.5,1.2-0.7,2-0.7
			c0.5,0,0.9,0.1,1.4,0.2c0.5,0.1,0.9,0.4,1.3,0.7c0.3,0.1,0.5,0,0.6-0.1l0.5-0.8c0.1-0.2,0.1-0.4-0.1-0.6c-0.6-0.4-1.2-0.7-1.8-0.9
			c-1.2-0.4-2.6-0.4-3.8,0c-0.6,0.2-1.1,0.5-1.5,0.8c-0.4,0.4-0.8,0.8-1,1.4c-0.2,0.6-0.4,1.2-0.4,1.9v4.1c0,0.7,0.1,1.4,0.4,1.9
			c0.2,0.5,0.6,1,1,1.4s0.9,0.7,1.5,0.8c0.6,0.2,1.2,0.3,1.8,0.3c0.7,0,1.4-0.1,2.1-0.3c0.7-0.2,1.3-0.6,1.9-1
			c0.2-0.1,0.2-0.4,0.1-0.6L517.5,301.9z"/>
		<path class="st0" d="M523.3,302.8C523.3,302.8,523.3,302.8,523.3,302.8c-0.1,0-0.3,0-0.4,0c-0.1,0-0.2,0-0.3,0
			c-0.4,0-0.6-0.1-0.8-0.3c-0.2-0.2-0.3-0.7-0.3-1.3v-9c0-0.3-0.2-0.4-0.4-0.4h-1c-0.3,0-0.4,0.2-0.4,0.4v9c0,1.1,0.2,1.9,0.7,2.5
			c0.5,0.6,1.2,0.9,2.1,0.9c0.2,0,0.3,0,0.5,0c0.2,0,0.3,0,0.5,0l0,0c0.2,0,0.4-0.2,0.4-0.4v-0.9C523.8,303,523.6,302.8,523.3,302.8
			z"/>
		<path class="st0" d="M531.5,296c-0.3-0.3-0.8-0.6-1.2-0.7c-1-0.3-2.3-0.3-3.3,0c-0.5,0.2-0.9,0.4-1.2,0.7
			c-0.3,0.3-0.6,0.7-0.8,1.1c-0.2,0.4-0.3,0.9-0.3,1.5v2.4c0,0.5,0.1,1,0.3,1.4c0.2,0.4,0.5,0.8,0.8,1.1c0.3,0.3,0.8,0.6,1.3,0.7
			c0.5,0.2,1,0.2,1.6,0.2s1.1-0.1,1.6-0.2c0.5-0.2,0.9-0.4,1.3-0.7c0.3-0.3,0.6-0.7,0.8-1.1c0.2-0.4,0.3-0.9,0.3-1.4v-2.4
			c0-0.5-0.1-1-0.3-1.5C532.1,296.7,531.8,296.3,531.5,296z M530.7,298.6v2.4c0,0.6-0.2,1-0.5,1.4c-0.4,0.3-0.9,0.5-1.6,0.5
			c-0.7,0-1.2-0.2-1.6-0.5c-0.4-0.3-0.5-0.8-0.5-1.4v-2.4c0-0.6,0.2-1,0.5-1.4c0.4-0.3,0.9-0.5,1.6-0.5c0.7,0,1.2,0.2,1.6,0.5
			C530.6,297.5,530.7,298,530.7,298.6z"/>
		<path class="st0" d="M541.6,295.1h-1c-0.3,0-0.4,0.2-0.4,0.4v7c-0.2,0.1-0.5,0.1-0.7,0.2c-0.3,0.1-0.7,0.1-1,0.1
			c-0.7,0-1.2-0.2-1.6-0.5c-0.4-0.3-0.5-0.9-0.5-1.7v-5.1c0-0.3-0.2-0.4-0.4-0.4h-1c-0.3,0-0.4,0.2-0.4,0.4v5.1
			c0,0.7,0.1,1.3,0.3,1.7c0.2,0.5,0.5,0.9,0.8,1.2c0.4,0.3,0.8,0.6,1.3,0.7c0.5,0.1,1,0.2,1.6,0.2c0.6,0,1.2-0.1,1.7-0.2
			c0.6-0.1,1.1-0.3,1.6-0.5c0.1,0,0.3-0.1,0.3-0.4v-7.9C542,295.3,541.8,295.1,541.6,295.1z"/>
		<path class="st0" d="M551.1,291.8h-1c-0.3,0-0.4,0.2-0.4,0.4v3.2c-0.2-0.1-0.5-0.2-0.7-0.2c-0.9-0.2-2-0.2-2.8,0.1
			c-0.5,0.2-0.9,0.4-1.2,0.8c-0.4,0.3-0.6,0.7-0.8,1.2c-0.2,0.5-0.3,1-0.3,1.6v1.9c0,0.7,0.1,1.3,0.3,1.7c0.2,0.5,0.5,0.9,0.8,1.2
			c0.4,0.3,0.8,0.6,1.3,0.7c0.5,0.1,1,0.2,1.6,0.2c0.6,0,1.1-0.1,1.7-0.2c0.6-0.1,1.1-0.3,1.6-0.5c0.2-0.1,0.3-0.2,0.3-0.4v-11.3
			C551.5,291.9,551.4,291.8,551.1,291.8z M549.7,297.2v5.5c-0.2,0.1-0.5,0.1-0.7,0.2c-0.3,0.1-0.7,0.1-1,0.1c-0.7,0-1.2-0.2-1.6-0.5
			c-0.4-0.3-0.6-0.9-0.6-1.7v-1.9c0-0.7,0.2-1.3,0.5-1.6c0.4-0.3,0.9-0.5,1.6-0.5c0.4,0,0.7,0.1,1,0.2
			C549.2,296.9,549.5,297,549.7,297.2z"/>
	</g>
	<g>
		<path class="st1" d="M358.7,274.3c-0.2-0.3-0.5-0.5-0.7-0.5c-0.2,0-0.5,0-0.7,0.3c-1.3,1-2.6,1.7-4.1,2.2c-1.5,0.5-3,0.7-4.6,0.7
			c-2.6,0-4.7-0.7-6-2.1c-1.4-1.4-2.1-3.3-2.1-5.6v-11.8c0-2.4,0.7-4.3,2.1-5.7c1.4-1.4,3.4-2.1,6-2.1c1.3,0,2.7,0.2,4.1,0.6
			c1.4,0.4,2.6,1.1,3.9,1.9c0.6,0.3,1.1,0.2,1.5-0.3l1.6-2.3c0.3-0.5,0.3-1.1-0.2-1.4c-1.6-1.2-3.3-2.1-5.1-2.6
			c-3.6-1.1-7.5-1.2-10.7-0.1c-1.6,0.5-3,1.3-4.2,2.4c-1.2,1.1-2.2,2.4-2.9,4c-0.7,1.6-1,3.4-1,5.5v11.9c0,2.1,0.4,3.9,1,5.5
			c0.7,1.6,1.7,2.9,2.9,3.9c1.2,1.1,2.6,1.9,4.3,2.4c1.6,0.5,3.4,0.8,5.2,0.8c2,0,4-0.3,6-0.9c2-0.6,3.8-1.6,5.4-2.9
			c0.5-0.3,0.6-0.9,0.3-1.5L358.7,274.3z"/>
		<path class="st1" d="M388.7,248.3c-1.2-1.2-2.7-2.1-4.4-2.7c-1.7-0.6-3.6-0.9-5.8-0.9s-4,0.3-5.8,0.9c-1.7,0.6-3.2,1.5-4.4,2.7
			c-1.2,1.2-2.1,2.6-2.8,4.3c-0.6,1.7-1,3.5-1,5.6v10.3c0,2,0.3,3.9,1,5.5c0.6,1.6,1.6,3.1,2.8,4.2c1.2,1.2,2.7,2.1,4.4,2.7
			c1.7,0.6,3.6,0.9,5.8,0.9s4-0.3,5.8-0.9c1.7-0.6,3.2-1.5,4.4-2.7c1.2-1.2,2.1-2.6,2.8-4.2c0.6-1.6,1-3.5,1-5.5v-10.3
			c0-2-0.3-3.9-1-5.6C390.8,250.9,389.9,249.5,388.7,248.3z M387.1,258.2v10.3c0,2.6-0.7,4.7-2.2,6.2c-1.5,1.5-3.6,2.2-6.4,2.2
			c-2.8,0-5-0.7-6.4-2.2c-1.5-1.5-2.2-3.5-2.2-6.2v-10.3c0-2.7,0.8-4.9,2.2-6.3s3.6-2.2,6.4-2.2c2.8,0,4.9,0.8,6.4,2.2
			C386.4,253.3,387.1,255.4,387.1,258.2z"/>
		<path class="st1" d="M412.7,245.3h-11.8c-0.6,0-1,0.4-1,1v34c0,0.6,0.4,1,1,1h3.1c0.6,0,1-0.4,1-1v-11h7.7c4,0,7.1-1.1,9.3-3.2
			c2.2-2.1,3.3-5.1,3.3-8.9c0-3.7-1.1-6.7-3.3-8.8C419.9,246.3,416.7,245.3,412.7,245.3z M420.2,257.2c0,4.8-2.6,7.1-7.9,7.1H405
			v-14.2h7.2C417.6,250.1,420.2,252.5,420.2,257.2z"/>
		<path class="st1" d="M453.8,274.3c-0.2-0.3-0.5-0.5-0.7-0.5c-0.2,0-0.5,0-0.7,0.3c-1.3,1-2.6,1.7-4.1,2.2c-1.5,0.5-3,0.7-4.6,0.7
			c-2.6,0-4.7-0.7-6-2.1s-2.1-3.3-2.1-5.6v-11.8c0-2.4,0.7-4.3,2.1-5.7c1.4-1.4,3.4-2.1,6-2.1c1.3,0,2.7,0.2,4.1,0.6
			c1.4,0.4,2.6,1.1,3.9,1.9c0.6,0.3,1.1,0.2,1.5-0.3l1.6-2.3c0.3-0.5,0.3-1.1-0.2-1.4c-1.6-1.2-3.3-2.1-5.1-2.6
			c-3.6-1.1-7.5-1.2-10.7-0.1c-1.6,0.5-3,1.3-4.2,2.4c-1.2,1.1-2.2,2.4-2.9,4c-0.7,1.6-1,3.4-1,5.5v11.9c0,2.1,0.4,3.9,1,5.5
			c0.7,1.6,1.7,2.9,2.9,3.9c1.2,1.1,2.6,1.9,4.3,2.4c1.6,0.5,3.4,0.8,5.2,0.8c2,0,4-0.3,6-0.9c2-0.6,3.8-1.6,5.4-2.9
			c0.5-0.3,0.6-0.9,0.3-1.5L453.8,274.3z"/>
		<path class="st1" d="M475.5,255h-2.9c-0.7,0-1.1,0.4-1.1,1.1v24.2c0,0.6,0.4,1,1.1,1h2.9c0.6,0,1-0.4,1-1v-24.2
			C476.6,255.4,476.2,255,475.5,255z"/>
		<path class="st1" d="M474.1,245.5c-0.8,0-1.5,0.3-2.1,0.8c-0.6,0.5-0.9,1.2-0.9,2.1c0,0.8,0.3,1.5,0.9,2.1
			c0.6,0.5,1.3,0.8,2.1,0.8c0.8,0,1.5-0.3,2.1-0.8s0.8-1.2,0.8-2.1c0-0.9-0.3-1.6-0.8-2.1C475.6,245.7,474.9,245.5,474.1,245.5z"/>
		<path class="st1" d="M504.1,260.5c-0.5-1.3-1.3-2.3-2.3-3.3c-1-0.9-2.2-1.6-3.6-2.1c-1.4-0.5-2.9-0.7-4.7-0.7s-3.3,0.2-4.7,0.7
			c-1.4,0.5-2.6,1.2-3.6,2.1c-1,0.9-1.7,2-2.3,3.3c-0.5,1.2-0.8,2.6-0.8,4.1v7.1c0,1.5,0.3,2.9,0.8,4.1c0.5,1.2,1.3,2.3,2.3,3.2
			c1,0.9,2.2,1.6,3.6,2.1c1.4,0.5,2.9,0.7,4.6,0.7s3.3-0.2,4.6-0.7c1.4-0.5,2.6-1.2,3.6-2.1c1-0.9,1.7-2,2.3-3.2
			c0.5-1.2,0.8-2.6,0.8-4.1v-7.1C504.9,263.2,504.7,261.8,504.1,260.5z M499.9,264.7v7.1c0,1.7-0.5,3.1-1.6,4c-1,1-2.6,1.5-4.7,1.5
			c-2,0-3.6-0.5-4.7-1.5c-1-1-1.6-2.3-1.6-4v-7.1c0-1.7,0.5-3.1,1.6-4.1c1-1,2.6-1.5,4.6-1.5c2.1,0,3.7,0.5,4.7,1.5
			C499.4,261.6,499.9,262.9,499.9,264.7z"/>
	</g>
	<circle class="st0" cx="463.2" cy="277.6" r="4.5"/>
</g>
<g>
	<circle class="st1" cx="272.2" cy="275.8" r="44.6"/>
	<g>
		<circle class="st0" cx="273" cy="262.9" r="7.5"/>
		<path class="st2" d="M273,271.2c-4.6,0-8.3-3.7-8.3-8.3c0-4.6,3.7-8.3,8.3-8.3c4.6,0,8.3,3.7,8.3,8.3
			C281.3,267.5,277.6,271.2,273,271.2z M273,256.3c-3.7,0-6.6,3-6.6,6.6s3,6.6,6.6,6.6s6.6-3,6.6-6.6S276.6,256.3,273,256.3z"/>
	</g>
	<g>
		<circle class="st0" cx="258.7" cy="276" r="4.9"/>
		<path class="st2" d="M258.7,281.7c-1.5,0-2.9-0.6-4.1-1.7l0,0c-1.1-1.1-1.7-2.5-1.7-4.1c0-1.5,0.6-3,1.7-4.1
			c2.2-2.2,5.9-2.2,8.1,0c1.1,1.1,1.7,2.5,1.7,4.1c0,1.5-0.6,3-1.7,4.1C261.7,281.2,260.2,281.7,258.7,281.7z M255.9,278.8
			c1.6,1.6,4.1,1.6,5.7,0c0.8-0.8,1.2-1.8,1.2-2.8c0-1.1-0.4-2.1-1.2-2.8c-1.6-1.6-4.1-1.6-5.7,0c-0.8,0.8-1.2,1.8-1.2,2.8
			C254.7,277.1,255.1,278.1,255.9,278.8L255.9,278.8z"/>
	</g>
	<g>
		<circle class="st0" cx="286.6" cy="276.7" r="4.9"/>
		<path class="st2" d="M286.6,282.4c-3.2,0-5.7-2.6-5.7-5.7c0-3.2,2.6-5.7,5.7-5.7s5.7,2.6,5.7,5.7
			C292.3,279.9,289.8,282.4,286.6,282.4z M286.6,272.7c-2.2,0-4,1.8-4,4c0,2.2,1.8,4,4,4c2.2,0,4-1.8,4-4
			C290.6,274.5,288.8,272.7,286.6,272.7z"/>
	</g>
	<g>
		<circle class="st0" cx="280.7" cy="288.3" r="2.6"/>
		<path class="st2" d="M280.7,291.7c-1.1,0-2.2-0.5-2.8-1.5v0c-1-1.6-0.6-3.7,1-4.7c0.8-0.5,1.7-0.7,2.5-0.5
			c0.9,0.2,1.6,0.7,2.1,1.5c0.5,0.8,0.7,1.7,0.5,2.5c-0.2,0.9-0.7,1.6-1.5,2.1C281.9,291.5,281.3,291.7,280.7,291.7z M279.1,289.4
			c0.6,0.9,1.7,1.1,2.6,0.6c0.4-0.3,0.7-0.7,0.8-1.2c0.1-0.5,0-1-0.3-1.4c-0.3-0.4-0.7-0.7-1.2-0.8c-0.5-0.1-1,0-1.4,0.3
			C278.8,287.3,278.5,288.5,279.1,289.4L279.1,289.4z"/>
	</g>
	<g>
		<circle class="st0" cx="297" cy="288.3" r="2.6"/>
		<path class="st2" d="M297,291.7c-0.2,0-0.5,0-0.7-0.1c-0.9-0.2-1.6-0.7-2.1-1.5l0,0c-0.5-0.8-0.7-1.7-0.5-2.5
			c0.2-0.9,0.7-1.6,1.5-2.1c1.6-1,3.7-0.6,4.7,1c0.5,0.8,0.7,1.7,0.5,2.5c-0.2,0.9-0.7,1.6-1.5,2.1
			C298.3,291.5,297.7,291.7,297,291.7z M297,286.5c-0.4,0-0.7,0.1-1,0.3c-0.4,0.3-0.7,0.7-0.8,1.2s0,1,0.3,1.4l0,0
			c0.3,0.4,0.7,0.7,1.2,0.8c0.5,0.1,1,0,1.4-0.3c0.4-0.3,0.7-0.7,0.8-1.2c0.1-0.5,0-1-0.3-1.4C298.2,286.8,297.6,286.5,297,286.5z"
			/>
	</g>
	<g>
		<circle class="st0" cx="248" cy="288.3" r="2.6"/>
		<path class="st2" d="M248,291.7c-0.2,0-0.5,0-0.7-0.1c-0.9-0.2-1.6-0.7-2.1-1.5c-0.5-0.8-0.7-1.7-0.5-2.5c0.2-0.9,0.7-1.6,1.5-2.1
			c1.6-1,3.7-0.6,4.7,1c0.5,0.8,0.7,1.7,0.5,2.5c-0.2,0.9-0.7,1.6-1.5,2.1C249.2,291.5,248.6,291.7,248,291.7z M247.9,286.5
			c-0.4,0-0.7,0.1-1,0.3c-0.4,0.3-0.7,0.7-0.8,1.2c-0.1,0.5,0,1,0.3,1.4l0,0c0.3,0.4,0.7,0.7,1.2,0.8c0.5,0.1,1,0,1.4-0.3
			c0.4-0.3,0.7-0.7,0.8-1.2c0.1-0.5,0-1-0.3-1.4C249.2,286.8,248.6,286.5,247.9,286.5z"/>
	</g>
	<g>
		<circle class="st0" cx="264.3" cy="288.3" r="2.6"/>
		<path class="st2" d="M264.3,291.7c-0.4,0-0.9-0.1-1.3-0.3l0,0c-1.7-0.7-2.5-2.7-1.8-4.4c0.7-1.7,2.7-2.5,4.4-1.8
			c1.7,0.7,2.5,2.7,1.8,4.4C266.9,290.9,265.6,291.7,264.3,291.7z M263.6,290.1c1,0.4,2.1,0,2.5-1c0.4-1,0-2.1-1-2.5
			c-1-0.4-2.1,0-2.5,1C262.2,288.6,262.6,289.7,263.6,290.1L263.6,290.1z"/>
	</g>
	<path class="st2" d="M272.4,302.4c-6.7,0-13.5-0.1-20.2,0c-8.5,0.1-15.9-6.7-17.6-14.6c-1.4-6.5,0.5-11.9,5.4-16.2
		c0.3-0.3,0.4-0.9,0.4-1.3c-1.1-6.4,2.5-12,8.6-13.4c1.3-0.3,2.8-0.2,4.2-0.2c0.7,0,1.1-0.1,1.4-0.7c2.7-4.6,6.6-7.8,11.7-9.4
		c10.6-3.4,22.6,1.8,27.5,12.4c0.7,1.4,1.1,2.9,1.5,4.3c0.2,0.6,0.5,0.9,1.1,1.1c8.3,2.5,14.4,10.6,14.4,19.2
		c0,9.3-5.7,16.6-14.7,18.5c-1,0.2-2,0.3-3,0.3C286.2,302.4,279.3,302.4,272.4,302.4z M272.2,298.4c6.7,0,13.4,0,20.2,0
		c9.4,0,16.4-8.8,14.2-18.1c-1.6-6.7-5.7-11-12.5-12.7c-1.4-0.4-1.9-0.8-2.1-2.2c-0.2-0.8-0.3-1.6-0.5-2.3
		c-2.9-10.2-14.5-16.3-24.2-12.7c-4.5,1.7-7.7,4.6-9.8,8.8c-0.8,1.7-1.4,1.9-3.2,1.5c-6.5-1.6-11.5,3.7-9.6,10.1
		c0.5,1.7,0.3,2.1-1.1,3.1c-3.6,2.5-5.5,6.1-5.4,10.6c0.1,7.2,6.5,14.1,14,13.9C258.8,298.3,265.5,298.4,272.2,298.4z"/>
</g>
</svg>
